<?xml version="1.0" encoding="UTF-8"?><svg id="Ebene_1" xmlns="http://www.w3.org/2000/svg" xmlns:xlink="http://www.w3.org/1999/xlink" viewBox="0 0 219.88 199.01"><defs><style>.cls-1{fill:#7f434d;}.cls-2{fill:#fff;}.cls-3{fill:#57413b;}.cls-4{clip-path:url(#clippath);}.cls-5{fill:none;}</style><clipPath id="clippath"><rect class="cls-5" width="219.88" height="199.01"/></clipPath></defs><g class="cls-4"><path class="cls-1" d="M99.51,181.82c45.46,0,82.32-36.85,82.32-82.32S144.97,17.19,99.51,17.19,17.19,54.04,17.19,99.51s36.85,82.32,82.32,82.32"/></g><g><path class="cls-2" d="M70.6,87.88c0,.21-.02,.4-.05,.56-.03,.16-.08,.3-.15,.4s-.15,.19-.24,.24c-.1,.06-.21,.09-.32,.09h-9.45v28.53c0,.1-.02,.19-.07,.27-.05,.08-.13,.15-.24,.2-.11,.05-.27,.09-.47,.12-.2,.03-.43,.05-.71,.05s-.51-.02-.71-.05c-.2-.03-.35-.07-.47-.12s-.2-.11-.25-.2c-.05-.08-.07-.17-.07-.27v-28.53h-9.45c-.13,0-.24-.03-.33-.09-.09-.06-.17-.14-.23-.24s-.11-.24-.15-.4c-.03-.16-.05-.35-.05-.56,0-.23,.02-.43,.05-.6,.03-.17,.08-.31,.15-.43s.14-.2,.23-.26c.09-.06,.2-.09,.33-.09h21.9c.11,0,.22,.03,.32,.09,.1,.06,.18,.14,.24,.26s.11,.26,.15,.43c.03,.17,.05,.37,.05,.6Z"/><path class="cls-2" d="M88.67,105.49c0,.59-.16,.99-.46,1.21-.31,.22-.61,.33-.91,.33h-15.11c0,1.37,.13,2.61,.4,3.72s.71,2.06,1.33,2.85c.62,.79,1.43,1.4,2.42,1.82s2.22,.64,3.67,.64c1.03,0,1.95-.09,2.77-.27s1.52-.38,2.12-.6c.6-.22,1.09-.42,1.47-.6s.66-.27,.82-.27c.1,0,.19,.02,.27,.07,.08,.05,.15,.13,.2,.23s.09,.24,.11,.4,.04,.37,.04,.61c0,.11,0,.22-.02,.33-.02,.11-.04,.21-.06,.29-.03,.09-.06,.18-.11,.26-.05,.08-.11,.16-.2,.24-.08,.08-.33,.22-.76,.43-.42,.21-.98,.41-1.67,.61-.69,.21-1.48,.39-2.39,.55-.91,.16-1.88,.24-2.93,.24-1.71,0-3.23-.26-4.56-.77-1.32-.51-2.43-1.27-3.33-2.28-.9-1-1.58-2.25-2.04-3.74-.47-1.49-.7-3.21-.7-5.17s.24-3.56,.72-5.04,1.17-2.75,2.07-3.78,1.98-1.83,3.25-2.38c1.27-.55,2.67-.82,4.23-.82,1.67,0,3.09,.28,4.26,.83,1.17,.55,2.14,1.3,2.9,2.24,.76,.94,1.31,2.03,1.67,3.27,.35,1.24,.53,2.55,.53,3.92v.59Zm-3.01-.86c.05-2.35-.49-4.19-1.62-5.51-1.13-1.32-2.77-1.98-4.92-1.98-1.11,0-2.09,.21-2.93,.62-.84,.42-1.55,.97-2.13,1.65-.58,.69-1.03,1.48-1.33,2.39-.31,.91-.49,1.85-.54,2.83h13.47Z"/><path class="cls-2" d="M110.16,117.25c.13,.2,.2,.36,.21,.5,0,.14-.04,.25-.16,.34s-.29,.16-.53,.2c-.24,.04-.54,.06-.89,.06s-.62-.01-.82-.04-.37-.06-.49-.11c-.12-.05-.22-.11-.29-.2-.07-.08-.14-.17-.21-.27l-5.98-9.26-5.95,9.26c-.07,.1-.13,.19-.21,.27-.07,.08-.18,.15-.31,.2-.13,.05-.3,.09-.5,.11s-.47,.04-.8,.04-.63-.02-.86-.06c-.23-.04-.4-.11-.5-.2-.11-.09-.16-.2-.15-.34,0-.14,.09-.31,.23-.5l7.3-10.75-6.96-10.51c-.13-.2-.2-.36-.21-.5,0-.14,.05-.25,.17-.34,.12-.09,.31-.15,.55-.18,.25-.03,.55-.05,.91-.05s.62,.01,.82,.04c.2,.02,.36,.06,.48,.11,.11,.05,.2,.11,.27,.18,.07,.07,.13,.16,.2,.26l5.63,8.67,5.78-8.67c.07-.1,.13-.18,.2-.26,.06-.07,.15-.13,.26-.18,.11-.05,.25-.08,.44-.11,.19-.03,.45-.04,.77-.04,.34,0,.63,.02,.87,.05,.24,.03,.41,.09,.53,.17s.17,.19,.16,.33c0,.14-.09,.31-.23,.53l-7,10.41,7.27,10.85Z"/><path class="cls-2" d="M126.55,116.39c0,.34-.03,.62-.09,.83s-.15,.38-.27,.5c-.12,.12-.3,.24-.54,.34-.24,.11-.51,.2-.82,.27-.31,.07-.64,.13-.98,.17-.34,.04-.68,.06-1,.06-1.09,0-2.03-.15-2.79-.44-.77-.29-1.4-.74-1.89-1.33-.49-.6-.85-1.35-1.07-2.27-.22-.91-.33-1.99-.33-3.23v-13.79h-3.31c-.23,0-.41-.1-.54-.31-.13-.2-.2-.51-.2-.92,0-.21,.02-.4,.05-.55,.03-.16,.08-.29,.15-.39,.06-.11,.14-.18,.23-.23,.09-.05,.19-.07,.31-.07h3.31v-5.44c0-.1,.02-.19,.06-.27,.04-.08,.12-.15,.23-.21,.11-.06,.27-.1,.45-.12s.42-.04,.7-.04c.29,0,.53,.01,.72,.04,.19,.02,.33,.07,.44,.12,.11,.06,.18,.13,.23,.21,.05,.08,.07,.17,.07,.27v5.44h6.12c.11,0,.22,.02,.31,.07,.09,.05,.17,.13,.23,.23s.11,.24,.15,.39c.03,.16,.05,.34,.05,.55,0,.41-.07,.71-.21,.92s-.31,.31-.53,.31h-6.12v13.4c0,1.68,.24,2.96,.72,3.85s1.36,1.32,2.63,1.32c.39,0,.75-.04,1.07-.12,.32-.08,.6-.17,.84-.27,.25-.1,.45-.19,.62-.27,.17-.08,.32-.12,.45-.12,.08,0,.16,.02,.22,.05,.07,.03,.12,.09,.16,.18s.07,.2,.1,.34,.04,.31,.04,.53Z"/><path class="cls-2" d="M151.28,104.07c0,.25-.02,.45-.06,.62-.04,.17-.1,.32-.18,.44-.08,.12-.18,.21-.28,.27-.11,.06-.22,.08-.33,.08h-8.28v9.26c0,.1-.02,.18-.07,.26-.05,.07-.13,.14-.24,.2-.12,.06-.26,.1-.43,.13-.17,.03-.39,.05-.65,.05-.25,0-.46-.02-.64-.05-.18-.03-.33-.08-.44-.13s-.2-.12-.26-.2-.09-.16-.09-.26v-9.26h-8.25c-.13,0-.24-.03-.34-.08-.1-.06-.19-.15-.27-.27-.08-.12-.14-.27-.18-.44-.04-.17-.06-.38-.06-.62,0-.21,.02-.4,.06-.58,.04-.17,.1-.31,.18-.43,.08-.11,.17-.2,.27-.26,.1-.06,.21-.09,.34-.09h8.25v-9.26c0-.11,.03-.22,.09-.31s.14-.17,.26-.23c.11-.06,.26-.11,.44-.15,.18-.03,.39-.05,.64-.05,.26,0,.48,.02,.65,.05,.17,.03,.31,.08,.43,.15,.11,.07,.2,.14,.24,.23,.05,.09,.07,.19,.07,.31v9.26h8.28c.11,0,.22,.03,.33,.09,.11,.06,.2,.14,.28,.26,.08,.11,.14,.26,.18,.43,.04,.17,.06,.36,.06,.58Z"/></g><path class="cls-3" d="M31.6,164.57s-.05,.04-.08,.04c-.03,0-.06,0-.1-.02-.04-.02-.08-.05-.14-.09s-.12-.1-.18-.17c-.07-.07-.12-.14-.16-.19-.04-.06-.07-.11-.08-.15-.02-.04-.02-.07-.02-.1,0-.03,.02-.05,.05-.08l5.55-5.17s.05-.04,.08-.04c.03,0,.06,0,.1,.03,.04,.02,.09,.05,.14,.1,.05,.04,.11,.1,.18,.17,.07,.07,.12,.14,.16,.2s.07,.1,.08,.14c.02,.04,.02,.07,.02,.1s-.02,.05-.05,.08l-5.55,5.16Z"/><path class="cls-3" d="M37.06,169.89s-.05,.04-.07,.04c-.03,0-.06,0-.1-.01-.04-.01-.08-.04-.14-.08-.05-.04-.12-.09-.19-.16-.07-.07-.13-.13-.17-.18-.04-.05-.07-.09-.09-.13-.02-.04-.02-.07-.02-.1s.02-.05,.04-.08l2.19-2.35c.21-.23,.37-.43,.46-.6s.15-.34,.18-.51c.03-.17,0-.33-.05-.48-.06-.15-.16-.3-.3-.43-.19-.17-.43-.28-.74-.32-.31-.04-.68-.03-1.12,.04l-2.62,2.81s-.05,.04-.07,.04c-.03,0-.06,0-.1-.01-.04-.01-.08-.04-.14-.08-.05-.04-.12-.09-.19-.16-.07-.07-.13-.12-.17-.18-.04-.05-.07-.09-.09-.13-.02-.04-.02-.07-.02-.1,0-.03,.02-.05,.04-.08l3.74-4.02s.05-.04,.07-.05c.02,0,.06,0,.09,0,.04,.01,.08,.04,.13,.07,.05,.04,.1,.08,.17,.15,.07,.06,.12,.11,.16,.16,.04,.05,.06,.08,.08,.12,.01,.04,.01,.07,.01,.09,0,.03-.02,.05-.04,.08l-.49,.53c.46-.04,.86-.02,1.19,.07,.33,.09,.62,.24,.85,.46,.27,.25,.45,.51,.55,.77s.13,.52,.11,.78c-.03,.26-.11,.51-.25,.76-.14,.25-.34,.52-.61,.8l-2.28,2.45Z"/><path class="cls-3" d="M46.16,167.45c-.05,.06-.09,.1-.13,.13-.04,.03-.07,.05-.09,.07-.03,.02-.05,.02-.07,.02-.02,0-.04-.01-.06-.03-.02-.02-.04-.05-.06-.09-.02-.04-.05-.09-.08-.15s-.07-.12-.13-.19c-.05-.07-.12-.14-.2-.21-.12-.1-.23-.16-.34-.19-.11-.03-.23-.03-.34,0-.12,.04-.24,.11-.37,.22-.13,.11-.27,.25-.42,.43l-.39,.46,.94,.79s.04,.04,.05,.07,0,.06,0,.1c0,.04-.03,.08-.05,.13-.03,.05-.07,.1-.12,.16-.09,.11-.18,.18-.25,.21-.07,.03-.13,.02-.18-.02l-.94-.79-3.11,3.68s-.04,.04-.07,.05c-.03,0-.06,0-.1,0-.04-.01-.09-.04-.14-.07-.06-.04-.12-.08-.19-.15s-.13-.12-.18-.17c-.04-.05-.08-.09-.09-.13-.02-.04-.03-.07-.03-.1,0-.03,.01-.05,.03-.08l3.11-3.68-.59-.5s-.07-.1-.05-.17c.02-.07,.07-.16,.17-.27,.05-.06,.09-.11,.14-.14,.04-.04,.08-.06,.11-.08,.03-.02,.07-.02,.09-.02,.03,0,.05,.02,.08,.04l.59,.5,.37-.43c.25-.29,.49-.52,.72-.68,.23-.16,.46-.27,.68-.3,.23-.04,.45-.02,.67,.06,.22,.08,.45,.22,.68,.41,.11,.09,.21,.19,.29,.3,.09,.11,.15,.2,.18,.27,.04,.07,.06,.12,.06,.16,0,.04,0,.07-.02,.11-.01,.04-.03,.08-.07,.13-.03,.05-.07,.1-.12,.16Z"/><path class="cls-3" d="M47.96,172.09c-.05,.07-.1,.13-.14,.18-.04,.04-.08,.08-.11,.1-.03,.02-.06,.03-.08,.03-.03,0-.05,0-.08-.02-.03-.02-.05-.05-.08-.09-.03-.04-.06-.09-.09-.14-.04-.05-.08-.11-.12-.16-.05-.06-.11-.11-.17-.16-.08-.06-.17-.11-.27-.13-.1-.03-.22-.04-.37-.03s-.31,.04-.5,.09c-.19,.05-.41,.12-.66,.21l-2.2,2.87s-.04,.04-.07,.05-.06,0-.1,0c-.04,0-.09-.03-.14-.06-.06-.03-.13-.08-.21-.14-.08-.06-.14-.11-.19-.16-.05-.05-.08-.09-.1-.12-.02-.04-.03-.07-.03-.09s.01-.05,.03-.08l3.34-4.36s.04-.04,.06-.05c.02,0,.06-.01,.1,0,.04,0,.08,.03,.13,.06,.05,.03,.11,.07,.18,.13,.07,.05,.13,.1,.17,.14,.04,.04,.07,.08,.09,.11,.01,.03,.02,.06,.02,.09,0,.03-.01,.05-.03,.08l-.49,.63c.25-.08,.47-.14,.66-.17,.19-.03,.35-.04,.5-.03,.14,0,.27,.04,.38,.08,.11,.05,.21,.11,.31,.18,.04,.03,.09,.07,.14,.12,.05,.04,.1,.1,.15,.15,.05,.06,.09,.11,.12,.16,.03,.05,.06,.09,.06,.12,0,.03,0,.06,0,.07,0,.02-.01,.04-.03,.07-.01,.03-.03,.06-.07,.11-.03,.04-.08,.11-.13,.18Z"/><path class="cls-3" d="M49.78,179.47s-.06,.06-.1,.06c-.04,0-.09,0-.14-.03-.05-.02-.13-.06-.22-.12-.09-.06-.16-.11-.2-.15s-.07-.09-.08-.12c0-.04,0-.08,.02-.12l.3-.46c-.34,.08-.67,.1-1,.06-.32-.04-.62-.16-.9-.34-.24-.16-.44-.33-.59-.53s-.26-.39-.32-.6c-.06-.21-.07-.43-.03-.65s.13-.45,.27-.67c.17-.26,.37-.45,.6-.57,.23-.12,.49-.18,.77-.17s.58,.07,.91,.19c.33,.12,.67,.3,1.02,.54l.63,.42,.24-.36c.12-.18,.2-.35,.25-.51,.05-.16,.07-.31,.04-.46-.02-.14-.09-.28-.19-.42-.1-.13-.25-.26-.44-.39-.21-.14-.41-.23-.61-.29-.2-.06-.38-.1-.54-.12-.16-.02-.3-.04-.42-.04-.12,0-.19-.02-.23-.05-.03-.02-.05-.04-.06-.07-.01-.03-.02-.06-.01-.1,0-.04,.01-.08,.04-.13s.05-.1,.08-.15c.06-.09,.11-.15,.15-.19,.04-.04,.1-.07,.18-.08,.08-.01,.19-.01,.34,0,.15,.01,.32,.04,.49,.09,.18,.05,.36,.11,.56,.19,.19,.08,.38,.18,.56,.3,.33,.22,.59,.44,.77,.67,.18,.23,.3,.46,.34,.7,.05,.24,.03,.49-.04,.74-.08,.26-.21,.53-.4,.81l-2.04,3.1Zm.54-2.65l-.72-.47c-.23-.15-.44-.27-.64-.34s-.38-.11-.54-.11c-.16,0-.31,.04-.43,.11s-.23,.18-.32,.32c-.16,.24-.21,.48-.15,.72,.06,.24,.22,.45,.5,.63,.22,.15,.46,.22,.73,.24,.26,.01,.57-.03,.93-.12l.64-.97Z"/><path class="cls-3" d="M55.89,181.28c-.14,.25-.3,.44-.5,.58-.2,.14-.42,.23-.66,.27-.24,.04-.5,.03-.76-.04-.27-.06-.54-.17-.82-.32-.17-.1-.33-.2-.47-.31-.14-.11-.26-.22-.36-.33s-.18-.21-.24-.3c-.06-.09-.1-.17-.12-.22-.02-.06-.02-.12,0-.2,.02-.07,.06-.17,.12-.28,.04-.07,.07-.12,.11-.16,.03-.04,.06-.08,.09-.1,.03-.02,.05-.04,.08-.04,.03,0,.05,0,.08,.02,.04,.02,.08,.08,.13,.17,.05,.09,.11,.2,.19,.32,.08,.12,.18,.25,.31,.38,.13,.13,.29,.26,.49,.37,.15,.08,.29,.14,.43,.18,.14,.04,.27,.05,.39,.04,.12-.01,.24-.05,.34-.12,.1-.07,.19-.17,.26-.3,.08-.14,.1-.27,.09-.4-.02-.13-.06-.26-.14-.4-.07-.13-.17-.27-.28-.4-.11-.13-.23-.27-.34-.42-.12-.14-.23-.29-.33-.45-.1-.16-.18-.32-.23-.5-.05-.17-.07-.36-.05-.55,.02-.19,.08-.39,.2-.61,.11-.19,.24-.35,.41-.48,.17-.13,.36-.22,.58-.27s.46-.05,.72,0,.54,.15,.83,.31c.13,.07,.25,.15,.37,.25,.12,.09,.22,.18,.3,.27,.09,.09,.15,.17,.21,.25,.05,.08,.09,.14,.11,.19,.02,.05,.03,.09,.03,.12,0,.03,0,.06-.01,.09,0,.03-.02,.07-.04,.11s-.04,.09-.07,.15c-.03,.06-.07,.11-.1,.15-.03,.04-.06,.07-.09,.09-.03,.02-.05,.03-.08,.04-.02,0-.05,0-.07-.01-.03-.02-.07-.06-.11-.14s-.09-.16-.16-.26c-.07-.1-.16-.2-.27-.31-.11-.11-.25-.21-.41-.31-.15-.08-.29-.14-.42-.17-.13-.03-.25-.03-.36-.01-.11,.02-.2,.06-.29,.13-.09,.06-.16,.15-.21,.25-.08,.14-.11,.28-.09,.41,.02,.13,.06,.27,.14,.4,.07,.13,.17,.27,.28,.41s.23,.28,.35,.42c.12,.14,.23,.29,.33,.45s.19,.32,.24,.49c.05,.17,.07,.35,.06,.54-.01,.19-.08,.39-.19,.59Z"/><path class="cls-3" d="M59.59,184.39c-.05,.11-.1,.19-.15,.24-.04,.05-.09,.09-.13,.1-.04,.01-.1,.02-.17,.02-.07,0-.15-.02-.23-.04-.08-.02-.17-.05-.26-.08-.09-.03-.18-.07-.26-.11-.25-.13-.46-.27-.61-.43-.15-.16-.25-.33-.3-.53-.05-.2-.05-.41,0-.65,.05-.24,.15-.5,.29-.78l1.43-2.88-.69-.34c-.05-.03-.08-.08-.09-.15,0-.08,.03-.18,.09-.31,.03-.07,.07-.12,.1-.17,.03-.04,.06-.08,.09-.1,.03-.02,.06-.04,.09-.04,.03,0,.06,0,.09,.02l.68,.34,.58-1.17s.03-.05,.05-.06c.02-.02,.06-.02,.1-.02,.04,0,.09,.01,.16,.03s.14,.05,.22,.1c.09,.04,.16,.09,.22,.12,.05,.04,.09,.07,.12,.1,.02,.03,.04,.06,.04,.09,0,.03,0,.06-.01,.08l-.58,1.17,1.26,.63s.05,.03,.07,.06c.02,.02,.02,.05,.02,.09,0,.04,0,.08-.02,.14-.02,.05-.04,.11-.08,.18-.07,.13-.13,.22-.19,.26-.06,.04-.12,.05-.17,.02l-1.26-.63-1.36,2.74c-.17,.34-.25,.62-.23,.84,.01,.22,.15,.4,.41,.53,.08,.04,.16,.07,.24,.09,.07,.02,.14,.03,.2,.04,.06,0,.11,.01,.16,.01,.04,0,.08,0,.11,.02,.02,0,.03,.02,.05,.04,.01,.02,.02,.04,.01,.07,0,.03-.01,.07-.03,.12-.01,.05-.04,.1-.07,.17Z"/><path class="cls-3" d="M66.18,182.15c-.04,.08-.07,.15-.1,.2s-.05,.1-.08,.12c-.02,.03-.05,.04-.07,.05s-.05,0-.08,0c-.03-.01-.06-.04-.1-.07-.04-.04-.08-.07-.12-.11-.05-.04-.1-.08-.16-.13-.06-.04-.13-.08-.21-.12-.09-.04-.19-.06-.3-.06-.11,0-.23,.02-.36,.06-.14,.04-.29,.11-.46,.21-.17,.1-.37,.22-.59,.36l-1.45,3.31s-.03,.05-.06,.07c-.02,.01-.06,.02-.1,.02s-.09,0-.15-.03c-.06-.02-.14-.05-.23-.09-.09-.04-.16-.08-.22-.11-.06-.03-.1-.06-.13-.1-.03-.03-.04-.06-.05-.09,0-.03,0-.05,.01-.08l2.2-5.03s.03-.05,.05-.07c.02-.02,.05-.02,.09-.03,.04,0,.09,0,.14,.02,.05,.02,.12,.04,.21,.08,.08,.04,.15,.07,.2,.1,.05,.03,.09,.06,.11,.09,.02,.03,.04,.06,.04,.08,0,.03,0,.05-.01,.09l-.32,.73c.23-.14,.43-.25,.6-.32,.18-.07,.34-.12,.47-.15,.14-.03,.27-.03,.39,0,.12,.02,.23,.05,.34,.1,.05,.02,.1,.05,.16,.08,.06,.03,.12,.07,.18,.12,.06,.04,.11,.09,.16,.13,.05,.04,.08,.08,.09,.11,.01,.03,.02,.05,.02,.07,0,.02,0,.04,0,.07,0,.03-.02,.07-.04,.12-.02,.05-.05,.12-.09,.21Z"/><path class="cls-3" d="M70.49,189.2s-.03,.05-.05,.07c-.02,.02-.05,.03-.09,.03s-.09,0-.15-.01c-.06-.01-.13-.03-.21-.06-.09-.03-.16-.06-.21-.09-.05-.03-.09-.05-.12-.08s-.04-.05-.05-.08c0-.03,0-.05,0-.08l.24-.69c-.41,.22-.79,.36-1.13,.41s-.66,.02-.95-.08c-.35-.12-.62-.28-.81-.48-.2-.2-.33-.42-.41-.67s-.1-.52-.07-.8,.11-.62,.24-.99l1.11-3.14s.03-.05,.05-.07c.02-.02,.05-.03,.1-.03s.1,0,.16,.02c.06,.02,.14,.04,.23,.07,.09,.03,.17,.06,.23,.09,.06,.03,.1,.06,.13,.09,.03,.03,.05,.06,.06,.09,0,.03,0,.05,0,.09l-1.06,3.02c-.11,.3-.17,.55-.19,.75-.02,.2,0,.38,.04,.54s.12,.3,.24,.42c.11,.12,.26,.21,.45,.28,.24,.08,.5,.08,.8,0,.29-.09,.63-.25,1.01-.48l1.27-3.62s.03-.05,.05-.07c.02-.01,.05-.03,.1-.03s.1,0,.16,.02c.06,.02,.14,.04,.24,.07,.09,.03,.17,.06,.23,.09,.06,.03,.1,.06,.13,.09s.05,.06,.06,.08c0,.03,0,.06,0,.09l-1.82,5.18Z"/><path class="cls-3" d="M77.2,190.26c-.02,.07-.04,.12-.05,.17-.02,.05-.04,.09-.05,.12-.02,.03-.04,.06-.06,.08s-.06,.05-.12,.09c-.06,.04-.16,.07-.3,.11-.14,.04-.29,.07-.45,.09-.16,.02-.33,.02-.52,0-.18-.01-.37-.04-.55-.09-.38-.1-.7-.26-.96-.46-.26-.21-.46-.46-.59-.75-.13-.3-.2-.63-.21-1.01,0-.38,.05-.8,.17-1.26,.14-.52,.33-.95,.56-1.29s.49-.6,.77-.78c.29-.18,.6-.29,.93-.32,.33-.03,.67,0,1.02,.09,.17,.04,.33,.1,.48,.18,.15,.07,.29,.16,.41,.24,.12,.09,.22,.18,.31,.27,.09,.09,.15,.17,.18,.23,.03,.06,.06,.1,.07,.14,0,.03,.02,.07,.02,.11,0,.04,0,.08-.01,.13,0,.05-.02,.11-.04,.18-.04,.15-.09,.25-.14,.31-.05,.05-.1,.07-.15,.06-.06-.02-.12-.07-.18-.15-.06-.09-.14-.18-.23-.29-.1-.11-.22-.22-.37-.33s-.34-.2-.57-.26c-.47-.13-.87-.04-1.22,.25-.35,.29-.61,.78-.8,1.46-.09,.34-.14,.65-.15,.92,0,.27,.03,.52,.11,.72,.08,.21,.2,.38,.36,.51,.16,.13,.36,.23,.59,.3,.22,.06,.43,.08,.62,.05,.19-.02,.36-.06,.5-.11,.15-.05,.27-.1,.37-.15,.1-.04,.18-.06,.23-.05,.03,0,.05,.02,.06,.04,.02,.02,.03,.05,.03,.09s0,.09,0,.15c0,.06-.02,.13-.05,.21Z"/><path class="cls-3" d="M81.78,191.73c-.03,.12-.05,.21-.08,.27-.03,.06-.06,.11-.1,.13s-.09,.04-.16,.06c-.07,.01-.15,.02-.23,.02-.08,0-.17,0-.27-.01-.09,0-.19-.02-.28-.04-.28-.06-.51-.15-.69-.27-.18-.12-.32-.26-.42-.44-.09-.18-.15-.39-.15-.63,0-.24,.02-.52,.09-.83l.68-3.14-.75-.16c-.06-.01-.1-.06-.12-.13-.02-.07-.02-.18,.01-.32,.02-.08,.04-.14,.06-.19,.02-.05,.04-.09,.07-.12s.05-.05,.08-.06c.03,0,.06,0,.09,0l.75,.16,.28-1.28s.02-.05,.04-.07c.02-.02,.05-.04,.09-.05,.04-.01,.1-.01,.16,0,.06,0,.15,.02,.24,.04,.1,.02,.18,.04,.24,.07,.06,.02,.11,.04,.14,.07,.03,.03,.05,.05,.06,.08,.01,.03,.01,.05,0,.08l-.28,1.28,1.38,.3s.06,.02,.08,.04c.02,.02,.04,.05,.05,.08,.01,.04,.01,.08,.01,.14,0,.05-.01,.12-.03,.19-.03,.14-.07,.24-.12,.3-.05,.05-.1,.08-.16,.06l-1.38-.3-.65,2.99c-.08,.37-.09,.66-.02,.87,.07,.21,.24,.35,.53,.41,.09,.02,.17,.03,.25,.03,.08,0,.14,0,.2-.01,.06,0,.11-.02,.16-.03,.04,0,.08,0,.11,0,.02,0,.04,.01,.05,.03,.02,.01,.03,.04,.03,.07,0,.03,0,.07,0,.12s-.01,.11-.03,.18Z"/><path class="cls-3" d="M88.59,193.22s-.01,.06-.03,.08c-.02,.02-.04,.04-.08,.05-.04,.01-.09,.02-.15,.02-.06,0-.13,0-.22-.02-.09-.01-.17-.03-.23-.04s-.1-.03-.13-.06c-.03-.02-.05-.04-.06-.07,0-.02-.01-.05,0-.08l.1-.72c-.36,.3-.7,.51-1.02,.62-.32,.12-.64,.15-.95,.11-.36-.05-.66-.15-.89-.31-.23-.16-.41-.35-.53-.58-.12-.23-.2-.49-.23-.77s-.01-.62,.04-1.02l.46-3.3s.01-.06,.03-.08c.02-.02,.05-.04,.09-.05,.04-.01,.1-.02,.16-.01,.07,0,.15,.01,.24,.02s.18,.03,.24,.04c.06,.02,.11,.03,.15,.06,.04,.02,.06,.05,.07,.07s.02,.05,.01,.08l-.44,3.17c-.04,.32-.06,.58-.04,.77,.02,.2,.07,.37,.14,.52,.08,.15,.18,.27,.32,.37,.13,.09,.3,.16,.49,.18,.25,.03,.51-.02,.78-.16,.27-.14,.57-.37,.9-.67l.53-3.8s.01-.06,.03-.08c.02-.02,.05-.04,.09-.05s.1-.02,.16-.02c.06,0,.15,.01,.25,.03,.1,.01,.18,.03,.24,.04,.06,.02,.11,.03,.15,.06,.03,.02,.06,.05,.07,.07,.01,.02,.02,.05,.02,.08l-.76,5.44Z"/><path class="cls-3" d="M94.74,188.64c0,.09-.02,.16-.03,.22,0,.06-.02,.11-.04,.14-.01,.03-.03,.06-.05,.08-.02,.02-.05,.02-.08,.02-.03,0-.07-.01-.12-.04s-.1-.05-.15-.07c-.06-.02-.12-.05-.19-.07-.07-.02-.15-.04-.23-.05-.1,0-.2,0-.3,.03-.1,.03-.21,.09-.33,.17-.12,.08-.24,.2-.37,.34-.13,.14-.28,.32-.44,.53l-.32,3.6s-.01,.06-.03,.08c-.02,.02-.05,.04-.08,.05-.04,.01-.09,.02-.16,.02s-.15,0-.25-.01c-.1,0-.18-.02-.24-.03-.06-.01-.11-.03-.15-.05-.04-.02-.06-.04-.07-.07s-.02-.05-.01-.08l.49-5.47s.01-.06,.03-.08c.01-.02,.04-.04,.08-.05,.04-.01,.09-.02,.14-.02,.06,0,.13,0,.23,.01,.09,0,.16,.02,.22,.03,.06,.01,.1,.03,.13,.05,.03,.02,.05,.04,.06,.07s.02,.05,.01,.08l-.07,.8c.17-.21,.33-.37,.47-.5,.14-.13,.28-.22,.4-.29,.12-.07,.25-.11,.36-.13s.24-.02,.35-.01c.05,0,.11,.01,.18,.03,.07,.01,.14,.03,.21,.05,.07,.02,.14,.05,.19,.07,.06,.02,.1,.05,.12,.07,.02,.02,.04,.04,.04,.06,0,.02,.01,.04,.02,.07,0,.03,0,.07,0,.13,0,.06,0,.13-.02,.22Z"/><path class="cls-3" d="M100.95,190.92c0,.16-.04,.27-.12,.34-.08,.07-.17,.1-.27,.1l-3.62-.05c0,.31,.02,.58,.08,.83,.06,.25,.16,.46,.3,.63,.14,.18,.33,.31,.55,.41,.23,.1,.51,.15,.84,.15,.26,0,.49-.01,.7-.05,.21-.04,.38-.09,.53-.14s.27-.1,.37-.14,.17-.06,.22-.06c.03,0,.05,0,.08,.02,.02,.01,.04,.04,.05,.07,.01,.03,.02,.07,.03,.12s0,.11,0,.19c0,.05,0,.1,0,.14s-.01,.07-.02,.1c0,.03-.02,.06-.03,.08-.01,.02-.03,.05-.06,.07s-.09,.06-.2,.11c-.11,.05-.25,.1-.43,.14-.18,.05-.38,.09-.61,.12-.23,.04-.48,.05-.74,.05-.45,0-.85-.07-1.19-.2-.34-.13-.62-.32-.85-.57-.23-.25-.4-.57-.51-.94-.11-.38-.17-.81-.16-1.31,0-.47,.07-.9,.2-1.27,.13-.37,.31-.69,.54-.95,.23-.26,.51-.46,.84-.59,.33-.14,.69-.2,1.1-.2,.43,0,.8,.08,1.1,.22,.3,.14,.55,.33,.74,.57,.19,.24,.33,.51,.42,.83,.09,.32,.13,.65,.12,1.01v.18Zm-1.01-.31c.02-.53-.09-.94-.34-1.25-.24-.3-.61-.46-1.1-.46-.25,0-.47,.04-.66,.13s-.35,.21-.48,.37-.23,.33-.3,.54c-.07,.2-.11,.42-.12,.64l3,.04Z"/><path class="cls-3" d="M106.79,195.29c-.01,.05-.03,.1-.05,.13-.02,.03-.05,.06-.09,.08-.04,.02-.09,.04-.15,.05-.06,.01-.13,.02-.21,.03-.1,0-.19,0-.25,0-.07,0-.12-.02-.16-.05-.04-.02-.06-.05-.08-.09-.01-.04,0-.08,.01-.14l2.78-10.41c.01-.05,.03-.1,.05-.13,.02-.03,.05-.06,.09-.08,.04-.02,.08-.04,.15-.05,.06-.01,.13-.02,.22-.03,.1,0,.18,0,.25,0,.07,0,.12,.02,.16,.04,.04,.02,.06,.05,.08,.09s0,.09,0,.14l-2.78,10.41Z"/><path class="cls-3" d="M121.3,187.58c.12,.63,.16,1.21,.1,1.74-.05,.53-.19,1-.42,1.41-.22,.41-.54,.75-.95,1.03-.41,.28-.91,.47-1.5,.58-.58,.11-1.1,.12-1.56,.03-.46-.09-.86-.28-1.2-.56-.34-.28-.63-.65-.86-1.12-.23-.47-.41-1.02-.53-1.66-.12-.61-.15-1.18-.1-1.71,.05-.53,.19-1,.42-1.4,.23-.41,.55-.75,.95-1.02,.41-.27,.91-.47,1.5-.58,.57-.11,1.09-.12,1.54-.03,.46,.09,.86,.27,1.2,.55,.35,.28,.63,.64,.86,1.1,.23,.46,.41,1,.53,1.63Zm-1.08,.28c-.08-.44-.2-.84-.35-1.2s-.34-.67-.58-.91c-.24-.24-.52-.41-.85-.51s-.72-.1-1.17-.02c-.45,.08-.81,.24-1.08,.47-.27,.23-.48,.5-.61,.81-.14,.32-.21,.67-.22,1.06,0,.39,.02,.79,.1,1.2,.09,.46,.21,.87,.36,1.24,.15,.37,.34,.67,.57,.92,.23,.24,.52,.41,.85,.51s.72,.1,1.18,.01c.45-.09,.81-.24,1.09-.47,.27-.23,.48-.5,.61-.82s.2-.68,.21-1.07c0-.39-.03-.79-.11-1.21Z"/><path class="cls-3" d="M128.78,186.48c.14,.46,.21,.89,.22,1.28,0,.4-.04,.75-.16,1.06-.12,.31-.3,.58-.54,.8-.24,.22-.55,.39-.92,.5-.16,.05-.31,.07-.45,.08-.14,0-.29,0-.43-.03-.15-.03-.3-.08-.45-.14-.16-.07-.32-.14-.5-.24l.78,2.63s0,.06,0,.09c0,.03-.03,.06-.06,.08-.03,.03-.08,.05-.14,.08-.06,.03-.14,.05-.24,.08-.09,.03-.17,.05-.24,.06-.06,.01-.12,.01-.16,.01-.04,0-.07-.02-.09-.04s-.04-.04-.04-.08l-2.19-7.35s-.01-.07,0-.09c0-.03,.02-.05,.05-.08,.03-.03,.07-.05,.12-.07,.05-.02,.12-.04,.2-.07,.08-.02,.15-.04,.21-.05,.05,0,.1-.01,.14,0,.04,0,.07,.02,.09,.03s.04,.04,.05,.08l.21,.71c.11-.21,.22-.4,.33-.56,.11-.17,.23-.31,.36-.43,.13-.12,.26-.23,.41-.32,.15-.09,.31-.16,.48-.21,.38-.11,.73-.14,1.04-.07s.59,.21,.84,.41c.25,.21,.46,.47,.64,.79,.18,.32,.33,.67,.44,1.05Zm-.97,.41c-.08-.27-.18-.52-.29-.76-.12-.24-.25-.44-.41-.61-.16-.17-.34-.28-.54-.35-.2-.07-.43-.06-.68,.01-.12,.04-.24,.09-.35,.17-.11,.07-.22,.17-.32,.29s-.2,.26-.3,.43c-.1,.17-.2,.38-.29,.61l.62,2.09c.36,.24,.69,.42,.98,.52,.29,.1,.57,.11,.83,.03,.24-.07,.43-.19,.57-.36,.14-.17,.24-.37,.29-.59,.05-.23,.06-.47,.04-.73-.02-.26-.07-.51-.14-.75Z"/><path class="cls-3" d="M135.22,183.92c.06,.15,.06,.27,0,.36s-.12,.16-.22,.19l-3.38,1.29c.11,.28,.23,.53,.38,.74s.31,.37,.51,.48c.2,.11,.42,.17,.67,.18,.25,0,.53-.05,.83-.17,.25-.09,.46-.2,.63-.31,.18-.11,.32-.22,.44-.32,.12-.1,.22-.19,.29-.26,.08-.07,.13-.12,.18-.14,.03-.01,.05-.01,.08,0,.03,0,.05,.02,.07,.04,.02,.02,.04,.06,.07,.1s.05,.1,.07,.17c.02,.05,.03,.09,.04,.13,.01,.04,.02,.07,.02,.1,0,.03,0,.06,0,.09,0,.03-.01,.06-.03,.08-.01,.03-.06,.09-.15,.17-.09,.09-.2,.18-.35,.29-.14,.11-.32,.22-.52,.34-.2,.12-.42,.22-.67,.32-.42,.16-.81,.24-1.18,.25-.36,0-.7-.07-1-.22s-.58-.38-.82-.69c-.24-.31-.45-.69-.63-1.16-.17-.44-.26-.86-.28-1.25-.02-.39,.03-.76,.15-1.08s.31-.61,.56-.86,.57-.44,.95-.58c.4-.15,.77-.22,1.1-.2,.33,.02,.63,.11,.9,.26,.27,.15,.5,.36,.7,.62,.2,.26,.36,.56,.49,.89l.06,.17Zm-1.05,.08c-.18-.5-.43-.84-.77-1.04-.34-.19-.74-.2-1.19-.03-.23,.09-.42,.21-.56,.37-.14,.15-.25,.33-.31,.52-.06,.19-.09,.39-.08,.61,0,.22,.05,.43,.12,.64l2.8-1.06Z"/><path class="cls-3" d="M139.28,179.69c.04,.08,.07,.15,.09,.21,.02,.06,.03,.1,.04,.14,0,.04,0,.07,0,.09,0,.03-.03,.04-.06,.06-.03,.01-.07,.02-.12,.03-.05,0-.11,0-.17,.02-.06,0-.13,.02-.2,.04-.07,.02-.15,.04-.23,.08-.09,.04-.17,.1-.25,.18s-.14,.18-.19,.31-.11,.29-.15,.48c-.04,.19-.08,.42-.11,.68l1.53,3.27s.02,.06,.01,.09c0,.03-.02,.06-.05,.09-.03,.03-.07,.06-.12,.1-.06,.04-.13,.07-.22,.12-.09,.04-.16,.07-.23,.09s-.11,.03-.16,.03-.08,0-.1-.02c-.02-.01-.04-.04-.05-.07l-2.32-4.98s-.02-.06-.02-.08,.02-.05,.04-.09c.03-.03,.06-.06,.11-.09,.05-.03,.12-.06,.2-.1,.08-.04,.15-.07,.21-.09,.06-.02,.1-.03,.14-.03,.04,0,.07,.01,.09,.03,.02,.01,.04,.04,.05,.07l.34,.72c.04-.26,.1-.48,.16-.67,.06-.18,.13-.33,.2-.45s.16-.22,.25-.3c.09-.08,.19-.14,.3-.19,.05-.02,.1-.04,.17-.07,.06-.02,.13-.04,.21-.06,.07-.02,.14-.03,.2-.03,.06,0,.11,0,.14,0,.03,0,.05,.02,.07,.03,.01,.01,.03,.03,.05,.05,.02,.02,.04,.06,.06,.11s.06,.12,.1,.2Z"/><path class="cls-3" d="M146.46,181.74s.03,.08,0,.12c-.02,.04-.05,.07-.09,.11-.04,.04-.12,.08-.21,.13-.09,.05-.17,.08-.23,.1-.06,.02-.11,.02-.15,.02-.04,0-.07-.03-.09-.08l-.26-.49c-.09,.34-.24,.64-.43,.9-.19,.26-.44,.47-.73,.63-.26,.14-.5,.22-.75,.27s-.47,.04-.68,0c-.21-.05-.41-.14-.59-.28-.18-.14-.33-.33-.45-.56-.14-.27-.21-.54-.21-.8,0-.26,.08-.51,.22-.76s.34-.48,.61-.7c.27-.23,.59-.44,.97-.64l.67-.35-.2-.38c-.1-.19-.21-.34-.32-.47-.12-.12-.24-.21-.38-.26-.14-.05-.29-.06-.46-.04-.17,.03-.35,.09-.56,.2-.22,.12-.4,.25-.55,.39-.15,.14-.27,.28-.37,.42-.1,.13-.18,.25-.24,.35-.06,.1-.11,.16-.16,.18-.03,.01-.06,.02-.09,.02-.03,0-.06-.01-.09-.04-.03-.02-.06-.05-.09-.09-.03-.04-.06-.09-.09-.14-.05-.09-.08-.16-.09-.22-.01-.06,0-.12,.01-.2,.02-.07,.08-.17,.16-.3,.09-.13,.19-.26,.32-.39s.27-.27,.44-.4c.17-.13,.34-.25,.53-.34,.35-.18,.67-.3,.95-.35,.29-.05,.55-.04,.78,.04,.23,.07,.44,.21,.63,.4,.19,.19,.36,.44,.52,.74l1.73,3.28Zm-2.06-1.75l-.76,.4c-.25,.13-.45,.26-.6,.4-.16,.14-.28,.28-.35,.42s-.11,.29-.11,.43c0,.14,.04,.29,.12,.44,.13,.25,.32,.41,.56,.47,.24,.07,.5,.02,.79-.13,.23-.12,.42-.3,.56-.52,.14-.22,.25-.52,.34-.88l-.54-1.03Z"/><path class="cls-3" d="M151.19,178.35c.07,.1,.11,.18,.13,.25,.03,.07,.03,.12,.02,.17,0,.04-.03,.1-.07,.16-.04,.06-.09,.12-.15,.18-.06,.06-.13,.12-.2,.18-.07,.06-.15,.12-.22,.17-.24,.16-.46,.26-.67,.31-.21,.05-.41,.05-.61,0-.19-.06-.38-.17-.56-.33-.18-.16-.35-.38-.53-.64l-1.76-2.68-.64,.42c-.05,.03-.11,.03-.18,0-.07-.03-.14-.11-.22-.24-.04-.06-.07-.12-.09-.17-.02-.05-.03-.09-.04-.13,0-.04,0-.07,.01-.1s.04-.05,.06-.07l.64-.42-.72-1.09s-.02-.05-.03-.08c0-.03,0-.06,.03-.1,.02-.04,.06-.08,.11-.12,.05-.04,.12-.09,.2-.14,.08-.06,.16-.1,.22-.13s.11-.05,.15-.05c.04,0,.07,0,.1,.01,.03,.01,.05,.03,.06,.05l.72,1.09,1.18-.78s.06-.03,.08-.03c.03,0,.06,0,.09,.03,.04,.02,.07,.05,.11,.09,.04,.04,.07,.09,.12,.16,.08,.12,.12,.22,.13,.29,0,.07-.02,.13-.07,.16l-1.18,.78,1.68,2.56c.21,.32,.41,.52,.61,.62,.2,.1,.42,.07,.66-.09,.08-.05,.14-.1,.2-.16,.05-.05,.09-.11,.13-.16s.07-.09,.09-.13c.02-.04,.05-.06,.08-.08,.02-.01,.04-.02,.06-.02,.02,0,.04,0,.07,.02,.02,.02,.05,.05,.09,.08,.03,.04,.07,.08,.11,.15Z"/><path class="cls-3" d="M157.91,170.53c.27,.36,.48,.72,.61,1.09,.13,.37,.19,.74,.17,1.09-.02,.36-.12,.71-.31,1.04-.19,.34-.46,.64-.83,.93-.36,.27-.71,.46-1.06,.56-.35,.1-.69,.11-1.02,.05-.33-.07-.66-.21-.96-.44-.31-.22-.61-.52-.89-.89-.27-.35-.48-.72-.61-1.09-.14-.37-.2-.73-.18-1.09,.02-.36,.12-.7,.31-1.04,.19-.33,.46-.64,.84-.93,.36-.27,.71-.46,1.06-.56,.35-.1,.69-.11,1.02-.05s.66,.21,.97,.43c.31,.22,.61,.52,.89,.88Zm-.79,.69c-.18-.24-.38-.44-.58-.62-.21-.18-.42-.3-.64-.39-.22-.08-.46-.1-.7-.06-.24,.04-.49,.16-.75,.36-.24,.18-.41,.38-.52,.6-.11,.22-.16,.44-.15,.68,0,.24,.06,.48,.17,.73s.26,.5,.45,.75c.18,.24,.38,.45,.58,.62s.42,.3,.64,.38c.22,.08,.46,.1,.7,.06,.24-.04,.49-.16,.75-.36,.23-.18,.41-.38,.51-.59,.11-.22,.16-.44,.15-.68,0-.24-.06-.48-.17-.73-.11-.25-.26-.5-.45-.75Z"/><path class="cls-3" d="M164.97,168.07s.03,.05,.04,.08c0,.03,0,.06-.02,.1-.02,.04-.05,.08-.09,.13-.04,.05-.1,.11-.17,.17-.08,.07-.14,.12-.2,.16-.05,.04-.1,.06-.14,.07-.04,.01-.07,.01-.1,0s-.05-.02-.07-.04l-2.13-2.41c-.21-.23-.39-.41-.56-.52-.16-.11-.33-.19-.49-.23-.16-.04-.32-.04-.48,0-.16,.04-.31,.13-.46,.26-.19,.17-.32,.4-.39,.7s-.09,.67-.07,1.12l2.55,2.87s.03,.05,.04,.08c0,.03,0,.06-.02,.1-.02,.04-.04,.08-.09,.13-.04,.05-.1,.11-.18,.17-.07,.06-.13,.12-.19,.15s-.1,.06-.14,.08-.07,.02-.1,0c-.03,0-.05-.02-.07-.05l-3.65-4.11s-.04-.05-.04-.07c0-.03,0-.06,.01-.09,.02-.04,.04-.08,.08-.12,.04-.04,.09-.09,.16-.16,.07-.06,.12-.11,.17-.14,.05-.03,.09-.06,.13-.06,.04,0,.07,0,.09,0,.03,0,.05,.02,.07,.05l.48,.54c0-.46,.06-.86,.19-1.18,.12-.32,.3-.59,.54-.8,.27-.24,.54-.4,.81-.47,.27-.07,.53-.08,.79-.03,.25,.05,.5,.16,.73,.32,.23,.16,.48,.39,.74,.69l2.22,2.51Z"/><path class="cls-3" d="M168.25,162.61c.2,.2,.34,.41,.43,.63,.08,.23,.11,.46,.09,.71-.03,.24-.1,.48-.23,.73-.13,.24-.3,.48-.53,.71-.14,.14-.28,.26-.42,.37-.15,.11-.29,.19-.42,.26-.13,.07-.25,.12-.36,.15-.1,.03-.19,.05-.25,.06-.06,0-.12-.01-.19-.05s-.15-.1-.24-.19c-.06-.05-.1-.1-.13-.15s-.06-.08-.07-.11c-.02-.03-.02-.06-.01-.09,0-.03,.02-.05,.04-.07,.03-.03,.1-.06,.2-.08,.1-.02,.22-.06,.36-.11,.14-.05,.28-.11,.45-.2,.16-.09,.32-.21,.48-.38,.12-.12,.21-.25,.29-.37,.07-.12,.12-.25,.13-.37,.02-.12,0-.24-.03-.36-.04-.12-.12-.23-.22-.33-.11-.11-.23-.17-.36-.19-.13-.02-.27,0-.42,.03-.15,.04-.3,.09-.46,.16-.16,.07-.32,.15-.49,.22s-.34,.14-.52,.2c-.18,.06-.36,.09-.54,.09-.18,0-.36-.03-.54-.09-.18-.07-.36-.18-.53-.35-.16-.15-.27-.33-.36-.52-.08-.2-.12-.41-.11-.63s.07-.46,.18-.7c.11-.24,.28-.48,.52-.72,.1-.1,.21-.2,.33-.29,.12-.09,.23-.16,.34-.22,.11-.06,.21-.1,.3-.13,.09-.03,.16-.05,.21-.06,.05,0,.09,0,.12,0,.03,0,.05,.02,.08,.04,.03,.02,.06,.04,.09,.07s.08,.06,.12,.11c.05,.05,.09,.09,.12,.13,.03,.04,.05,.08,.07,.11,.01,.03,.02,.06,.01,.09,0,.03-.01,.05-.03,.06-.03,.03-.08,.05-.16,.07-.08,.02-.18,.05-.29,.09-.11,.04-.24,.1-.37,.18-.14,.08-.27,.18-.4,.32-.12,.12-.21,.24-.27,.36-.06,.12-.1,.24-.11,.35,0,.11,0,.21,.05,.31,.04,.1,.1,.19,.18,.27,.11,.11,.24,.17,.37,.19,.13,.02,.28,0,.42-.03,.15-.04,.31-.09,.47-.17,.16-.07,.33-.15,.5-.22,.17-.08,.35-.14,.53-.21,.18-.06,.36-.1,.54-.1,.18,0,.36,.02,.54,.08s.35,.18,.52,.34Z"/><path class="cls-3" d="M20.39,64.61c.06,.02,.11,.05,.16,.07,.04,.02,.08,.05,.11,.07,.03,.02,.05,.05,.08,.07,.02,.03,.04,.06,.06,.12,.02,.05,.05,.16,.07,.31,.03,.15,.04,.33,.04,.54,0,.21-.02,.44-.06,.69-.04,.25-.12,.52-.23,.79-.19,.47-.45,.87-.76,1.19s-.68,.55-1.1,.69c-.42,.14-.88,.19-1.4,.15-.51-.04-1.06-.18-1.66-.42-.61-.25-1.12-.55-1.53-.9-.41-.35-.72-.73-.94-1.15-.21-.42-.33-.86-.34-1.32s.08-.94,.27-1.41c.09-.21,.19-.41,.31-.59,.12-.18,.25-.35,.38-.49,.13-.15,.26-.27,.39-.37,.13-.1,.24-.16,.31-.19,.07-.03,.12-.05,.16-.05,.03,0,.07,0,.11,0,.04,0,.08,.01,.14,.03,.05,.01,.11,.04,.18,.06,.08,.03,.14,.06,.19,.09,.05,.03,.09,.06,.12,.09,.03,.03,.05,.06,.06,.09,0,.03,0,.06,0,.09-.02,.05-.09,.11-.2,.18-.11,.07-.24,.15-.39,.27s-.31,.26-.47,.45c-.16,.18-.3,.43-.42,.73-.13,.33-.19,.65-.17,.97,.02,.32,.12,.63,.29,.92,.17,.29,.42,.57,.74,.82,.32,.25,.71,.47,1.18,.67,.46,.19,.89,.31,1.29,.35,.4,.05,.75,.02,1.07-.07,.32-.09,.59-.25,.82-.47,.23-.22,.42-.51,.56-.85,.12-.29,.19-.56,.2-.81,.02-.25,.01-.47-.01-.65-.03-.19-.05-.35-.09-.48-.03-.13-.04-.22-.01-.28,0-.03,.03-.05,.04-.06,.02-.01,.05-.02,.08-.02,.04,0,.08,.01,.14,.03s.13,.04,.22,.08Z"/><path class="cls-3" d="M21.7,57.67c.4,.2,.74,.44,1.03,.71,.29,.27,.5,.58,.64,.91,.14,.33,.2,.69,.18,1.07-.02,.38-.13,.78-.34,1.2-.2,.4-.44,.73-.71,.97-.27,.24-.57,.4-.9,.49-.33,.09-.68,.1-1.06,.03s-.77-.2-1.19-.41c-.4-.2-.74-.44-1.03-.71-.29-.27-.5-.57-.64-.9-.14-.33-.2-.69-.18-1.07,.02-.38,.14-.78,.34-1.2,.2-.4,.44-.73,.71-.97,.27-.24,.57-.4,.9-.49,.33-.09,.68-.1,1.06-.04,.38,.06,.77,.2,1.18,.4Zm-.4,.96c-.27-.13-.53-.23-.79-.3-.26-.07-.51-.09-.75-.06-.24,.02-.45,.11-.65,.25-.2,.14-.37,.36-.52,.65-.13,.27-.2,.52-.2,.76,0,.24,.05,.47,.17,.68,.11,.21,.27,.41,.48,.58,.21,.18,.45,.34,.73,.48,.27,.13,.53,.23,.8,.3s.51,.09,.74,.06c.23-.03,.45-.11,.65-.26,.2-.14,.37-.36,.52-.65,.13-.27,.2-.52,.2-.76,0-.24-.05-.47-.16-.68-.11-.21-.27-.4-.48-.58s-.45-.33-.74-.48Z"/><path class="cls-3" d="M25.52,56.62s.05,.04,.06,.06c.01,.02,.02,.06,.01,.1,0,.04-.02,.09-.04,.15-.02,.06-.06,.14-.11,.22-.05,.08-.09,.15-.13,.21-.04,.05-.08,.09-.11,.12-.03,.03-.06,.04-.09,.04-.03,0-.05,0-.08-.02l-7.12-3.98s-.05-.04-.07-.06c-.01-.02-.02-.06-.01-.1,0-.04,.02-.09,.04-.15,.02-.06,.06-.13,.11-.22,.05-.09,.09-.16,.13-.21,.04-.05,.08-.09,.11-.12,.03-.02,.06-.04,.09-.04,.03,0,.06,0,.09,.02l7.12,3.98Z"/><path class="cls-3" d="M27.05,54.09s.05,.04,.06,.06c.01,.03,.01,.06,0,.1,0,.04-.02,.09-.05,.15-.03,.06-.07,.13-.12,.22-.05,.08-.1,.15-.14,.2-.04,.05-.08,.09-.11,.11-.03,.02-.06,.04-.09,.04-.03,0-.05,0-.08-.03l-6.92-4.32s-.05-.04-.06-.06c-.01-.02-.02-.06,0-.1,0-.04,.02-.09,.05-.15,.03-.06,.07-.13,.12-.21,.05-.09,.1-.15,.14-.21,.04-.05,.08-.09,.11-.11,.03-.02,.06-.03,.09-.04,.03,0,.06,0,.09,.02l6.92,4.32Z"/><path class="cls-3" d="M28.32,46.83c.13,.09,.2,.19,.21,.29,0,.1-.01,.2-.07,.28l-2.06,2.97c.25,.17,.49,.3,.73,.39,.24,.09,.47,.12,.69,.11,.22-.02,.44-.09,.65-.23,.21-.14,.41-.34,.59-.61,.15-.22,.26-.42,.35-.61,.08-.19,.14-.36,.18-.52,.04-.15,.07-.28,.09-.38s.04-.18,.07-.22c.02-.02,.04-.04,.06-.05,.02-.01,.05-.01,.08,0,.03,0,.07,.02,.11,.04s.1,.06,.16,.1c.04,.03,.08,.06,.11,.08s.05,.05,.08,.07c.02,.02,.04,.05,.05,.07s.02,.05,.03,.08c0,.03,0,.11-.02,.23-.02,.12-.06,.26-.12,.44-.06,.17-.14,.36-.24,.57-.1,.21-.22,.42-.37,.64-.26,.37-.54,.66-.83,.87s-.61,.34-.95,.38c-.34,.05-.69,.02-1.07-.1-.38-.12-.77-.32-1.18-.6-.39-.27-.7-.56-.94-.88-.24-.31-.4-.64-.49-.98-.08-.34-.09-.68-.02-1.03,.07-.35,.22-.69,.45-1.02,.25-.35,.51-.62,.8-.79,.29-.17,.58-.27,.88-.3,.3-.03,.61,.01,.92,.12,.31,.1,.61,.26,.91,.46l.15,.1Zm-.82,.66c-.43-.31-.83-.45-1.22-.42s-.72,.25-1,.65c-.14,.21-.23,.41-.26,.62-.03,.21-.02,.41,.04,.6,.05,.19,.15,.38,.28,.55,.13,.17,.28,.33,.46,.46l1.71-2.46Z"/><path class="cls-3" d="M33.69,43.5c.05,.04,.1,.08,.14,.12,.04,.04,.07,.07,.09,.1,.02,.03,.04,.06,.05,.09,.01,.03,.02,.08,.03,.15,0,.07,0,.18-.02,.32-.02,.14-.05,.29-.1,.45-.05,.16-.12,.31-.2,.48-.08,.16-.19,.32-.3,.47-.25,.31-.52,.54-.81,.7-.29,.16-.6,.24-.93,.24-.32,0-.66-.07-1.01-.21-.35-.14-.71-.37-1.08-.67-.42-.34-.74-.68-.96-1.03-.22-.35-.36-.69-.4-1.02s-.02-.66,.08-.98c.1-.32,.27-.62,.49-.9,.11-.14,.23-.26,.36-.37,.13-.11,.26-.2,.38-.27,.13-.07,.25-.13,.37-.17,.12-.04,.22-.06,.29-.07,.07,0,.12,0,.15,0,.03,0,.07,.01,.11,.03,.04,.01,.08,.04,.12,.06,.04,.03,.09,.06,.15,.11,.12,.1,.2,.18,.23,.25,.03,.07,.02,.12-.01,.16-.04,.05-.11,.08-.21,.1s-.22,.05-.36,.1c-.14,.04-.29,.11-.45,.21-.16,.09-.32,.23-.46,.41-.3,.38-.39,.78-.26,1.22,.13,.44,.47,.88,1.02,1.32,.28,.22,.54,.39,.79,.5,.25,.12,.48,.18,.71,.19,.22,.01,.42-.03,.61-.12,.19-.09,.36-.23,.51-.42,.14-.18,.24-.36,.3-.54,.05-.18,.08-.35,.1-.51,.01-.15,.02-.29,.02-.4,0-.11,.01-.19,.04-.23,.02-.02,.04-.04,.07-.04,.03,0,.06,0,.1,.01,.04,.01,.08,.04,.13,.07,.05,.03,.11,.07,.17,.12Z"/><path class="cls-3" d="M37.21,40.23c.09,.08,.15,.15,.19,.21,.04,.06,.06,.11,.06,.16,0,.05,0,.1-.03,.17-.02,.07-.06,.14-.1,.21-.04,.07-.09,.15-.15,.23-.06,.08-.12,.15-.18,.22-.19,.21-.39,.36-.58,.46s-.39,.14-.59,.13c-.2,0-.41-.07-.62-.19-.21-.12-.43-.28-.67-.5l-2.35-2.19-.52,.56s-.1,.06-.17,.04c-.07-.02-.16-.08-.27-.18-.06-.05-.1-.1-.13-.14-.03-.04-.05-.08-.07-.12-.01-.04-.02-.07,0-.1s.02-.06,.04-.08l.52-.56-.96-.89s-.04-.04-.04-.07c0-.03,0-.06,0-.1,.01-.04,.04-.09,.08-.14,.04-.05,.09-.12,.16-.19,.07-.07,.13-.13,.18-.17,.05-.04,.1-.07,.13-.08s.07-.02,.1-.02c.03,0,.05,.02,.08,.04l.96,.89,.96-1.03s.05-.04,.07-.05c.03,0,.06,0,.1,0,.04,.01,.08,.03,.12,.06,.04,.03,.1,.07,.15,.12,.11,.1,.17,.19,.19,.26,.02,.07,.01,.13-.03,.17l-.96,1.03,2.24,2.09c.28,.26,.52,.41,.74,.46,.22,.05,.43-.03,.62-.24,.06-.07,.11-.13,.15-.2,.04-.07,.07-.13,.09-.18,.02-.06,.04-.1,.06-.15s.03-.08,.05-.1c.01-.02,.03-.03,.05-.03,.02,0,.04,0,.07,0,.03,.01,.06,.03,.1,.06,.04,.03,.09,.07,.14,.12Z"/><path class="cls-3" d="M42.57,31.8c.3,.33,.53,.68,.69,1.04,.16,.36,.25,.72,.25,1.08s-.07,.71-.23,1.06c-.16,.35-.42,.68-.76,.98-.34,.3-.68,.51-1.02,.63-.34,.12-.68,.16-1.02,.12-.34-.04-.67-.17-.99-.37-.33-.2-.64-.48-.95-.82-.3-.33-.53-.68-.69-1.04-.16-.36-.25-.72-.25-1.08,0-.36,.07-.71,.23-1.06,.16-.34,.42-.67,.77-.98,.34-.3,.68-.51,1.02-.63,.34-.12,.68-.16,1.02-.12,.34,.04,.67,.17,1,.36,.33,.2,.64,.47,.95,.81Zm-.74,.74c-.2-.22-.4-.41-.62-.58-.22-.16-.44-.27-.67-.34-.23-.06-.46-.07-.7-.01-.24,.06-.48,.19-.72,.41-.22,.2-.38,.41-.47,.63-.09,.22-.12,.45-.1,.69s.1,.48,.22,.72c.12,.24,.29,.48,.5,.72,.2,.23,.41,.42,.62,.58,.22,.16,.44,.27,.67,.33s.46,.06,.7,0,.48-.19,.72-.41c.22-.2,.38-.41,.47-.63,.09-.22,.13-.45,.1-.69-.02-.24-.1-.47-.22-.72-.13-.24-.29-.48-.5-.72Z"/><path class="cls-3" d="M49.51,29.9s.03,.05,.03,.08,0,.06-.03,.09c-.02,.04-.05,.08-.1,.12-.05,.04-.11,.1-.19,.16-.08,.06-.15,.11-.21,.14s-.1,.05-.14,.06c-.04,0-.07,.01-.1,0-.03,0-.05-.02-.07-.05l-1.96-2.55c-.19-.25-.36-.43-.52-.56-.15-.12-.31-.21-.47-.26-.16-.05-.32-.06-.48-.03s-.32,.11-.48,.23c-.2,.15-.35,.38-.44,.67-.09,.3-.14,.66-.15,1.11l2.34,3.05s.03,.05,.03,.08c0,.03,0,.06-.03,.09-.02,.04-.05,.08-.1,.12-.05,.05-.11,.1-.19,.16-.08,.06-.14,.11-.2,.14-.06,.03-.11,.05-.15,.06-.04,.01-.07,.01-.1,0-.03,0-.05-.03-.07-.05l-3.34-4.36s-.03-.05-.04-.08c0-.02,0-.06,.02-.09,.02-.04,.05-.07,.09-.11,.04-.04,.1-.09,.17-.14,.07-.05,.13-.1,.18-.13,.05-.03,.09-.05,.13-.05,.04,0,.07,0,.09,0,.02,0,.05,.03,.07,.05l.44,.58c.04-.46,.13-.85,.27-1.17,.15-.31,.34-.57,.59-.76,.29-.22,.57-.36,.85-.41,.27-.05,.54-.05,.79,.02,.25,.07,.48,.2,.71,.38,.22,.18,.45,.43,.69,.74l2.04,2.66Z"/><path class="cls-3" d="M53.22,25.59c.15,.23,.25,.47,.28,.71,.03,.24,.01,.48-.06,.71-.08,.23-.2,.45-.38,.66-.18,.21-.4,.4-.67,.58-.16,.11-.33,.2-.49,.27-.17,.07-.32,.13-.46,.17-.14,.04-.27,.06-.38,.07s-.19,.01-.25,0-.12-.04-.17-.09c-.06-.05-.12-.13-.19-.23-.04-.06-.07-.12-.1-.17-.02-.05-.04-.09-.04-.12,0-.03,0-.06,0-.09,.01-.02,.03-.04,.05-.06,.04-.02,.11-.04,.21-.04,.1,0,.23-.01,.37-.03,.14-.02,.3-.05,.48-.1,.18-.05,.36-.14,.55-.26,.14-.09,.26-.19,.36-.3,.09-.11,.17-.22,.21-.33,.05-.12,.06-.23,.05-.36-.02-.12-.06-.25-.15-.37-.09-.13-.19-.22-.31-.26-.12-.04-.26-.07-.42-.06-.15,0-.32,.02-.49,.06-.17,.04-.35,.07-.53,.11-.18,.04-.37,.06-.55,.08-.19,.02-.37,0-.55-.02-.18-.03-.35-.1-.51-.21-.16-.1-.31-.26-.45-.46-.12-.18-.2-.38-.24-.59-.04-.21-.03-.42,.03-.64s.17-.43,.33-.64c.16-.21,.38-.41,.66-.59,.12-.08,.25-.15,.39-.21,.14-.06,.26-.11,.38-.14,.12-.03,.22-.06,.32-.07,.09-.01,.17-.01,.22,0,.05,0,.09,.01,.12,.02s.05,.03,.07,.05c.02,.02,.05,.05,.08,.08s.06,.08,.1,.13c.04,.06,.07,.11,.09,.16,.02,.05,.04,.09,.04,.12,0,.04,0,.06,0,.09,0,.02-.02,.04-.04,.05-.03,.02-.09,.03-.17,.03-.08,0-.18,0-.3,.03-.12,.02-.25,.05-.4,.09s-.3,.12-.46,.22c-.14,.09-.26,.19-.35,.3-.09,.1-.15,.21-.18,.31s-.04,.21-.02,.31c.02,.11,.06,.21,.12,.3,.09,.13,.19,.22,.32,.27,.13,.05,.27,.07,.42,.06,.15,0,.32-.02,.49-.06,.18-.04,.35-.07,.54-.11,.18-.04,.37-.07,.56-.09,.19-.02,.37-.02,.54,.01,.18,.03,.35,.09,.5,.19,.16,.1,.31,.25,.44,.44Z"/><path class="cls-3" d="M58.69,20.74c.08,.14,.12,.24,.11,.31,0,.07-.03,.12-.09,.16l-2.23,1.25c-.06,.04-.13,.04-.19,0s-.13-.12-.21-.26c-.08-.14-.11-.24-.11-.31,0-.07,.04-.12,.1-.16l2.23-1.25s.06-.02,.09-.03c.03,0,.06,0,.09,.03,.03,.02,.07,.05,.1,.09,.04,.04,.07,.1,.11,.16Z"/><path class="cls-3" d="M67.97,19.32c.03,.08,.06,.14,.07,.19,.01,.05,.02,.1,.02,.14,0,.04,0,.08-.03,.11-.02,.03-.04,.05-.08,.06l-3.2,1.4c-.09,.04-.18,.04-.28,.02-.1-.02-.18-.11-.25-.25l-2.93-6.7s-.02-.06-.01-.09c0-.03,.02-.06,.05-.09s.08-.06,.14-.1c.06-.04,.13-.08,.22-.11,.09-.04,.17-.07,.24-.09,.07-.02,.12-.03,.16-.03,.04,0,.08,0,.1,.02s.04,.04,.06,.07l2.74,6.26,2.59-1.13s.07-.02,.1-.01c.03,0,.06,.02,.09,.05,.03,.02,.06,.06,.09,.11,.03,.05,.06,.11,.09,.18Z"/><path class="cls-3" d="M72.78,14.75c.05,.15,.05,.27,0,.36-.05,.09-.13,.15-.22,.19l-3.41,1.2c.1,.29,.22,.54,.36,.75,.14,.21,.31,.37,.5,.49,.19,.12,.41,.18,.66,.19,.25,.01,.53-.04,.84-.15,.25-.09,.46-.19,.64-.29,.18-.11,.33-.21,.45-.31s.22-.18,.3-.26c.08-.07,.14-.12,.18-.13,.03,0,.05-.01,.08,0,.03,0,.05,.02,.07,.04,.02,.02,.04,.06,.07,.1s.05,.1,.07,.17c.02,.05,.03,.09,.04,.13,0,.04,.02,.07,.02,.1s0,.06,0,.09c0,.03-.01,.06-.03,.08-.01,.03-.06,.09-.15,.17-.09,.08-.21,.18-.35,.28-.15,.1-.33,.21-.53,.33-.21,.11-.43,.21-.67,.3-.43,.15-.82,.22-1.18,.22s-.69-.09-1-.25c-.3-.16-.57-.39-.81-.71-.24-.31-.44-.71-.6-1.17-.16-.44-.24-.86-.25-1.26,0-.4,.05-.75,.18-1.08,.13-.32,.32-.61,.58-.85,.26-.24,.58-.43,.96-.56,.41-.14,.78-.2,1.11-.17s.63,.12,.89,.28,.49,.37,.68,.63c.19,.27,.35,.57,.47,.91l.06,.17Zm-1.05,.05c-.17-.5-.41-.85-.75-1.06-.33-.2-.73-.22-1.19-.06-.24,.08-.43,.2-.57,.35-.15,.15-.25,.32-.32,.51-.07,.19-.1,.39-.1,.61,0,.22,.04,.43,.1,.65l2.83-1Z"/><path class="cls-3" d="M79.49,15.85s.07,.09,.08,.13c0,.04,0,.07-.03,.11-.03,.03-.08,.07-.16,.1-.07,.03-.17,.06-.29,.09-.12,.03-.21,.05-.28,.07-.07,.01-.13,.02-.17,.02-.04,0-.08-.01-.11-.03-.03-.02-.05-.04-.08-.06l-1.84-1.76-.7,2.45s-.02,.06-.04,.09c-.02,.03-.04,.05-.08,.08-.04,.02-.09,.05-.15,.07-.06,.02-.15,.05-.26,.08-.11,.03-.21,.05-.28,.06-.08,0-.13,0-.17,0-.04-.01-.06-.04-.07-.08s0-.09,.02-.15l.95-3.03-2.24-2.07s-.08-.09-.09-.12c-.01-.04,0-.07,.03-.11,.03-.04,.08-.07,.16-.1,.07-.03,.17-.06,.3-.09,.12-.03,.21-.05,.28-.07,.07-.01,.13-.02,.17-.02,.04,0,.08,0,.1,.02,.03,.01,.05,.03,.07,.06l1.74,1.65,.69-2.3s.02-.05,.04-.08c.01-.03,.04-.05,.07-.07,.03-.02,.07-.05,.13-.07,.06-.02,.14-.05,.25-.08,.11-.03,.21-.05,.28-.06,.08-.01,.13-.01,.17,0,.04,.01,.07,.04,.07,.08,0,.04,0,.1-.02,.16l-.88,2.88,2.35,2.17Z"/><path class="cls-3" d="M80.41,8.24c.05,.23,.04,.4-.03,.5s-.22,.18-.46,.23c-.23,.05-.4,.04-.5-.02-.1-.06-.18-.21-.23-.44-.05-.23-.04-.4,.03-.5,.07-.1,.22-.18,.46-.23,.23-.05,.4-.04,.5,.02,.1,.06,.18,.21,.23,.44Zm1.45,7.2s0,.06,0,.08c-.01,.03-.03,.05-.07,.08-.03,.02-.08,.05-.14,.07-.06,.02-.14,.04-.24,.07-.1,.02-.17,.03-.24,.04-.06,0-.12,0-.16,0-.04,0-.07-.02-.09-.04-.02-.02-.03-.04-.04-.08l-1.17-5.37s0-.06,0-.08,.03-.05,.06-.08c.04-.02,.08-.05,.14-.07,.06-.02,.14-.04,.24-.06,.1-.02,.18-.04,.25-.04,.06,0,.12,0,.16,0,.04,0,.07,.02,.09,.04,.02,.02,.04,.04,.04,.07l1.17,5.37Z"/><path class="cls-3" d="M87.58,13.55c.01,.07,.02,.13,.02,.18,0,.05,0,.09,0,.13,0,.04-.01,.07-.02,.1,0,.03-.04,.07-.08,.13s-.12,.13-.22,.23c-.11,.1-.23,.18-.37,.27-.14,.08-.3,.16-.47,.22-.17,.07-.35,.11-.54,.15-.39,.06-.75,.06-1.07-.02-.32-.08-.61-.22-.85-.44-.24-.21-.45-.49-.61-.83s-.29-.75-.37-1.22c-.09-.53-.1-1-.03-1.41,.07-.4,.19-.75,.38-1.03,.19-.28,.42-.51,.71-.68,.29-.17,.61-.28,.97-.34,.17-.03,.34-.04,.51-.03,.17,0,.32,.02,.47,.05,.14,.03,.28,.07,.39,.12,.12,.05,.21,.1,.26,.14,.06,.04,.1,.07,.12,.1s.04,.06,.06,.09c.02,.04,.03,.08,.04,.12,.01,.05,.02,.11,.04,.18,.03,.16,.03,.27,0,.34-.03,.07-.06,.11-.12,.12-.06,0-.13-.01-.22-.07-.09-.05-.2-.11-.33-.17-.13-.06-.29-.11-.47-.15s-.39-.04-.62,0c-.48,.08-.81,.32-1.01,.73-.19,.41-.23,.96-.12,1.66,.06,.35,.14,.65,.25,.9,.11,.25,.24,.46,.4,.61,.16,.16,.34,.26,.54,.32,.2,.06,.42,.06,.66,.02,.23-.04,.42-.11,.58-.21,.16-.1,.3-.2,.41-.31,.11-.11,.21-.2,.28-.29,.07-.08,.13-.13,.18-.14,.03,0,.05,0,.08,.01,.02,.01,.04,.04,.07,.07,.02,.04,.04,.08,.05,.14,.02,.06,.03,.12,.04,.21Z"/><path class="cls-3" d="M93.52,13.76s0,.09-.04,.11c-.03,.03-.07,.05-.13,.07-.05,.02-.14,.03-.25,.04-.11,0-.19,.01-.25,0-.06,0-.11-.02-.14-.04-.03-.02-.05-.06-.05-.11l-.05-.55c-.22,.28-.46,.5-.75,.67-.28,.17-.59,.27-.91,.3-.29,.03-.55,.01-.79-.04-.24-.05-.45-.14-.62-.27-.18-.13-.32-.29-.43-.49-.11-.2-.18-.43-.2-.69-.03-.31,.01-.58,.12-.82,.11-.24,.27-.44,.49-.61,.22-.17,.5-.31,.83-.41,.33-.1,.71-.18,1.14-.21l.75-.07-.04-.43c-.02-.21-.06-.4-.12-.55-.06-.16-.14-.29-.25-.39-.11-.1-.24-.17-.41-.21-.16-.04-.36-.05-.59-.03-.25,.02-.47,.07-.66,.15-.19,.08-.36,.16-.5,.24-.14,.08-.26,.16-.35,.23-.09,.07-.17,.1-.21,.11-.03,0-.06,0-.09-.02-.03-.01-.05-.04-.07-.07-.02-.03-.04-.07-.05-.12-.01-.05-.02-.1-.03-.17,0-.1,0-.18,0-.24,0-.06,.04-.12,.09-.18,.05-.06,.14-.13,.27-.21,.13-.08,.28-.16,.44-.24,.17-.07,.36-.14,.56-.2,.2-.06,.41-.09,.62-.11,.39-.04,.73-.02,1.01,.04,.28,.06,.52,.18,.7,.33s.33,.36,.43,.61c.1,.25,.17,.54,.19,.88l.33,3.69Zm-1.22-2.41l-.86,.08c-.28,.02-.51,.07-.71,.13-.2,.06-.36,.15-.49,.25-.13,.1-.21,.22-.27,.35-.05,.13-.07,.28-.06,.45,.03,.28,.14,.5,.33,.65,.19,.15,.45,.21,.78,.19,.26-.02,.5-.11,.71-.27,.21-.15,.43-.38,.65-.68l-.1-1.16Z"/><path class="cls-3" d="M96.47,13.59s0,.06-.02,.08c-.02,.02-.04,.04-.08,.06-.04,.02-.09,.03-.15,.04s-.15,.02-.25,.02c-.1,0-.18,0-.24,0-.07,0-.12-.02-.16-.03-.04-.01-.07-.03-.08-.05-.01-.02-.02-.05-.02-.08l-.31-8.15s0-.06,.02-.09c.01-.02,.04-.05,.08-.06,.04-.02,.09-.03,.15-.04,.06-.01,.15-.02,.24-.02,.1,0,.19,0,.25,0,.06,0,.12,.02,.15,.03,.04,.01,.06,.03,.08,.06,.02,.02,.03,.05,.03,.08l.31,8.15Z"/><path class="cls-3" d="M106.84,13.71s0,.06-.02,.08c-.01,.02-.04,.04-.08,.06-.04,.01-.1,.03-.17,.03s-.17,0-.29,0c-.11,0-.19-.01-.26-.02-.07-.01-.12-.03-.16-.05-.04-.02-.07-.04-.09-.08-.02-.03-.04-.08-.05-.12l-.66-1.89c-.08-.21-.16-.41-.24-.59s-.19-.34-.31-.47c-.12-.13-.27-.24-.43-.32-.17-.08-.37-.12-.61-.13l-.7-.03-.13,3.36s-.01,.06-.03,.08c-.02,.02-.05,.04-.09,.05-.04,.01-.09,.02-.16,.03-.07,0-.15,0-.25,0s-.19-.01-.25-.03c-.07-.01-.12-.03-.16-.04-.04-.01-.07-.04-.08-.06-.02-.03-.02-.05-.02-.09l.28-7.31c0-.16,.05-.27,.14-.33,.09-.06,.18-.09,.27-.08l1.68,.06c.2,0,.36,.02,.5,.04s.25,.03,.36,.05c.3,.07,.57,.16,.8,.28,.23,.12,.42,.27,.57,.46,.15,.18,.26,.39,.33,.62,.07,.23,.1,.48,.09,.75,0,.26-.05,.5-.13,.71-.08,.21-.19,.39-.33,.54-.14,.16-.31,.29-.5,.4-.19,.11-.41,.2-.64,.28,.13,.06,.24,.14,.35,.23,.1,.09,.2,.2,.28,.32,.09,.13,.17,.27,.24,.43s.15,.34,.22,.55l.64,1.76c.05,.15,.08,.25,.1,.31,.01,.06,.02,.11,.02,.14Zm-1.37-5.6c.01-.31-.05-.57-.18-.79-.13-.22-.36-.38-.68-.49-.1-.03-.21-.06-.34-.07-.13-.02-.29-.03-.5-.04l-.88-.03-.1,2.66,1.02,.04c.28,0,.52-.01,.72-.07,.2-.06,.38-.15,.51-.26,.14-.11,.24-.25,.31-.41,.07-.16,.11-.34,.12-.53Z"/><path class="cls-3" d="M113.37,11.48c-.02,.16-.07,.26-.16,.32-.09,.06-.18,.08-.28,.07l-3.59-.41c-.04,.3-.04,.58,0,.83s.11,.47,.23,.66c.12,.19,.29,.34,.51,.46,.22,.12,.49,.2,.82,.23,.26,.03,.49,.04,.7,.02,.21-.02,.39-.05,.54-.08,.15-.03,.28-.07,.38-.1,.1-.03,.18-.04,.22-.04,.03,0,.05,.01,.07,.03,.02,.02,.04,.04,.04,.07,0,.03,.01,.07,.01,.12,0,.05,0,.11-.01,.18,0,.05-.01,.1-.02,.14,0,.04-.02,.07-.03,.1,0,.03-.02,.06-.04,.08-.02,.02-.04,.04-.06,.06-.02,.02-.09,.05-.21,.09-.12,.04-.26,.07-.44,.1-.18,.03-.39,.05-.62,.06-.23,.01-.48,0-.74-.03-.45-.05-.83-.16-1.16-.32-.32-.16-.59-.38-.79-.66-.2-.27-.34-.6-.42-.99-.08-.39-.08-.83-.03-1.32,.05-.47,.16-.88,.33-1.24,.17-.36,.38-.66,.63-.89s.56-.4,.9-.51c.34-.1,.71-.13,1.11-.08,.43,.05,.79,.16,1.07,.33s.51,.38,.68,.64c.17,.25,.28,.54,.33,.87,.05,.32,.06,.66,.02,1.02l-.02,.18Zm-.97-.41c.07-.52,0-.95-.21-1.28-.21-.33-.56-.52-1.04-.57-.25-.03-.47,0-.67,.07-.2,.07-.37,.18-.51,.32s-.26,.31-.35,.5c-.09,.2-.16,.41-.19,.63l2.98,.34Z"/><path class="cls-3" d="M118.42,13.95c-.05,.28-.15,.51-.29,.71s-.32,.35-.54,.46-.46,.18-.74,.21c-.27,.03-.57,0-.88-.05-.19-.04-.37-.09-.54-.15-.17-.06-.32-.13-.45-.2-.13-.07-.24-.14-.32-.21s-.15-.13-.18-.17c-.04-.05-.06-.11-.06-.19,0-.08,0-.18,.03-.3,.01-.08,.03-.14,.05-.19,.02-.05,.04-.09,.05-.12,.02-.03,.04-.05,.06-.06,.03,0,.05-.01,.08,0,.04,0,.1,.05,.18,.12,.08,.07,.17,.15,.28,.24s.25,.18,.41,.26c.16,.09,.35,.15,.58,.19,.17,.03,.32,.04,.47,.03s.27-.04,.38-.09c.11-.05,.21-.13,.28-.22,.08-.1,.13-.22,.15-.37,.03-.15,.01-.29-.04-.41-.06-.12-.14-.23-.26-.33-.11-.11-.24-.2-.39-.3-.15-.09-.3-.19-.46-.29-.16-.1-.31-.21-.45-.33-.14-.12-.27-.25-.38-.4-.1-.15-.18-.32-.22-.5s-.04-.4,0-.64c.04-.21,.12-.41,.24-.58,.12-.18,.27-.32,.47-.44s.42-.19,.68-.23c.26-.04,.56-.03,.88,.03,.14,.03,.29,.07,.43,.12,.14,.05,.26,.11,.37,.16,.11,.06,.2,.12,.28,.17,.07,.06,.13,.11,.16,.15,.04,.04,.06,.07,.07,.1s.01,.06,.01,.09c0,.03,0,.07,0,.12,0,.04-.01,.1-.02,.16-.01,.07-.03,.13-.04,.17s-.03,.09-.05,.12c-.02,.03-.04,.05-.06,.06-.02,.01-.05,.01-.07,0-.04,0-.08-.04-.14-.1-.06-.06-.14-.12-.24-.19-.1-.07-.22-.14-.35-.21-.14-.07-.3-.12-.49-.16-.17-.03-.32-.04-.46-.03-.13,.01-.25,.05-.35,.1-.1,.05-.17,.13-.23,.21-.06,.09-.1,.19-.12,.3-.03,.16-.01,.29,.04,.42,.06,.12,.15,.23,.26,.34,.11,.1,.24,.2,.4,.3,.15,.09,.3,.19,.46,.29,.16,.1,.31,.21,.46,.33,.15,.11,.28,.25,.38,.39,.1,.14,.18,.31,.23,.49,.05,.18,.05,.39,0,.62Z"/><path class="cls-3" d="M125.5,14.4c-.12,.43-.28,.81-.49,1.15-.21,.33-.47,.6-.76,.8-.3,.2-.63,.33-1.01,.39-.38,.06-.79,.02-1.24-.1-.44-.12-.8-.29-1.09-.5-.29-.22-.51-.48-.66-.78-.15-.31-.23-.65-.24-1.03,0-.38,.05-.8,.17-1.25,.12-.43,.28-.81,.49-1.15,.21-.33,.46-.6,.76-.8,.3-.2,.63-.33,1.01-.38,.38-.05,.79-.02,1.24,.1,.44,.12,.8,.28,1.09,.5,.29,.22,.51,.48,.66,.79,.15,.31,.23,.65,.24,1.03,.01,.38-.04,.79-.16,1.24Zm-1.03-.21c.08-.29,.12-.57,.14-.83,.02-.27-.01-.52-.08-.74-.07-.23-.2-.42-.38-.59-.18-.17-.43-.29-.74-.38-.29-.08-.55-.09-.79-.05-.23,.04-.45,.14-.63,.29s-.35,.34-.48,.58c-.13,.24-.24,.51-.33,.81-.08,.29-.12,.57-.14,.84-.02,.27,.01,.52,.09,.74,.07,.22,.2,.42,.38,.59s.43,.29,.74,.38c.29,.08,.55,.09,.79,.05,.24-.05,.45-.14,.63-.29s.34-.34,.48-.58,.24-.51,.32-.82Z"/><path class="cls-3" d="M130.84,19.19s-.03,.05-.05,.07c-.02,.02-.05,.03-.09,.03-.04,0-.09,0-.15-.01-.06-.01-.13-.03-.21-.06-.09-.03-.16-.06-.21-.09-.05-.03-.09-.05-.12-.08-.03-.03-.04-.05-.05-.08,0-.02,0-.05,0-.08l.24-.69c-.41,.22-.79,.36-1.13,.41-.34,.05-.66,.02-.95-.08-.35-.12-.62-.28-.81-.48-.2-.2-.33-.42-.41-.67-.08-.25-.1-.52-.07-.8,.03-.29,.11-.62,.24-.99l1.11-3.14s.03-.06,.05-.07c.02-.02,.05-.03,.1-.03,.04,0,.1,0,.16,.02,.06,.02,.14,.04,.23,.07s.17,.06,.23,.09c.06,.03,.1,.06,.13,.09s.05,.06,.06,.08c0,.03,0,.05,0,.09l-1.06,3.02c-.11,.3-.17,.55-.19,.75-.02,.2,0,.38,.04,.54,.05,.16,.12,.3,.24,.42,.11,.12,.26,.21,.45,.28,.24,.08,.5,.08,.8,0,.29-.08,.63-.25,1.01-.48l1.28-3.62s.03-.05,.05-.07c.02-.02,.05-.03,.1-.03,.04,0,.1,0,.16,.02,.06,.02,.14,.04,.24,.07,.09,.03,.17,.06,.23,.09,.06,.03,.1,.06,.13,.09,.03,.03,.05,.06,.06,.08s0,.06,0,.09l-1.83,5.18Z"/><path class="cls-3" d="M137.74,16.55c-.04,.08-.07,.15-.1,.21-.03,.05-.05,.09-.08,.12-.03,.03-.05,.04-.07,.05-.02,0-.05,0-.08,0-.03-.01-.06-.04-.1-.07-.04-.04-.08-.07-.12-.11-.05-.04-.1-.08-.16-.13s-.13-.08-.21-.12c-.09-.04-.19-.06-.3-.06-.11,0-.23,.02-.36,.06-.14,.04-.29,.11-.46,.21-.17,.09-.37,.21-.58,.36l-1.45,3.31s-.03,.05-.05,.07c-.02,.01-.06,.02-.1,.02-.04,0-.09,0-.15-.03-.06-.02-.14-.05-.23-.09-.09-.04-.16-.07-.22-.11-.06-.03-.1-.07-.13-.09-.03-.03-.04-.06-.05-.09,0-.03,0-.05,.01-.08l2.2-5.03s.03-.05,.05-.07c.02-.01,.05-.02,.09-.03,.04,0,.09,0,.14,.02,.05,.02,.12,.04,.21,.08,.08,.04,.15,.07,.2,.1,.05,.03,.09,.06,.11,.09,.02,.03,.04,.06,.04,.08,0,.03,0,.05-.01,.08l-.32,.73c.23-.14,.43-.25,.6-.32,.18-.07,.33-.12,.47-.15,.14-.02,.27-.03,.39,0,.12,.02,.23,.05,.34,.1,.05,.02,.1,.05,.16,.08,.06,.03,.12,.07,.18,.11,.06,.04,.11,.09,.16,.13,.05,.04,.08,.08,.09,.11,.01,.03,.02,.05,.02,.07,0,.02,0,.04,0,.07s-.02,.07-.04,.12c-.02,.05-.05,.12-.09,.21Z"/><path class="cls-3" d="M140.77,22.81c-.03,.06-.06,.11-.09,.16-.03,.04-.05,.08-.08,.11-.02,.03-.05,.05-.07,.07-.02,.02-.07,.04-.14,.06-.07,.02-.17,.04-.32,.05-.14,.01-.3,.01-.46,0-.16-.02-.33-.05-.51-.09-.18-.05-.35-.11-.52-.2-.35-.18-.64-.39-.85-.64-.22-.25-.36-.54-.43-.85-.07-.32-.08-.66-.01-1.03s.2-.77,.42-1.2c.24-.48,.51-.87,.8-1.16,.29-.29,.59-.49,.91-.61,.32-.12,.64-.16,.97-.13,.33,.03,.66,.13,.98,.29,.16,.08,.3,.17,.43,.27,.13,.1,.25,.21,.35,.32,.1,.11,.18,.22,.25,.33,.07,.11,.11,.2,.13,.26,.02,.07,.04,.12,.04,.15,0,.03,0,.07,0,.11,0,.04-.02,.08-.04,.13-.02,.05-.04,.1-.08,.17-.07,.14-.14,.23-.2,.27s-.11,.05-.16,.03c-.05-.03-.1-.09-.14-.18-.04-.09-.1-.21-.17-.33s-.17-.26-.3-.4c-.12-.14-.29-.26-.5-.36-.43-.22-.85-.21-1.25,0-.4,.22-.75,.64-1.07,1.28-.16,.32-.26,.61-.32,.88s-.07,.51-.03,.73c.04,.22,.12,.41,.25,.57,.13,.16,.3,.3,.52,.41,.21,.1,.41,.16,.6,.17,.19,.01,.36,0,.51-.01,.15-.02,.29-.04,.4-.07,.11-.03,.19-.03,.23,0,.03,.01,.04,.03,.05,.05,.01,.02,.01,.05,.01,.1,0,.04-.02,.09-.04,.14s-.05,.12-.08,.19Z"/><path class="cls-3" d="M147.34,24.14c-.08,.14-.17,.21-.27,.23-.1,.02-.2,0-.29-.05l-3.11-1.84c-.16,.26-.27,.51-.34,.76-.07,.24-.09,.47-.06,.7,.03,.22,.13,.43,.28,.63s.37,.38,.65,.55c.22,.13,.44,.23,.63,.3,.2,.07,.37,.12,.53,.15,.15,.03,.29,.05,.39,.06,.11,.01,.18,.03,.22,.06,.03,.01,.04,.03,.05,.06,.01,.02,.02,.05,.01,.08,0,.03-.02,.07-.04,.12-.02,.05-.05,.1-.09,.16-.03,.05-.05,.08-.07,.12-.02,.03-.04,.06-.07,.08-.02,.02-.04,.04-.07,.06-.03,.01-.05,.02-.08,.03-.03,0-.11,0-.23,0-.12-.01-.27-.04-.44-.09-.17-.05-.37-.11-.59-.2s-.44-.19-.66-.32c-.39-.23-.7-.49-.93-.77s-.38-.59-.45-.92c-.07-.33-.07-.69,.02-1.07s.26-.79,.51-1.21c.24-.41,.51-.74,.8-1,.3-.26,.61-.45,.94-.56,.33-.11,.67-.14,1.02-.1,.35,.04,.7,.17,1.05,.38,.37,.22,.65,.46,.84,.74,.19,.27,.31,.56,.36,.86,.05,.3,.03,.61-.05,.93-.08,.32-.21,.63-.4,.94l-.09,.16Zm-.72-.77c.28-.45,.39-.87,.33-1.25-.06-.39-.3-.7-.72-.95-.22-.13-.43-.2-.64-.21s-.41,.01-.6,.08c-.19,.07-.36,.17-.53,.31-.17,.14-.31,.31-.43,.5l2.58,1.52Z"/><path class="cls-3" d="M150.96,28.4c-.16,.23-.34,.41-.56,.53-.21,.12-.44,.19-.68,.21-.24,.01-.5-.02-.76-.11-.26-.09-.52-.22-.78-.4-.16-.11-.3-.23-.43-.36-.13-.12-.24-.25-.32-.37-.09-.12-.16-.23-.21-.32s-.08-.18-.1-.23c-.01-.06,0-.12,.02-.2,.02-.07,.07-.16,.14-.26,.04-.06,.09-.11,.12-.15,.04-.04,.07-.07,.1-.09s.06-.03,.08-.03c.03,0,.05,0,.07,.03,.04,.03,.08,.08,.12,.18,.04,.1,.09,.21,.16,.33,.07,.13,.16,.26,.27,.41,.11,.15,.26,.28,.45,.41,.14,.1,.28,.17,.41,.22,.14,.05,.26,.07,.39,.07,.12,0,.24-.03,.35-.09,.11-.06,.21-.15,.29-.27,.09-.13,.13-.26,.12-.39,0-.13-.04-.27-.1-.41-.06-.14-.14-.28-.24-.43-.1-.14-.2-.29-.3-.45-.1-.16-.2-.32-.28-.48-.09-.17-.15-.34-.18-.51-.03-.18-.04-.36,0-.55,.03-.19,.12-.38,.26-.59,.12-.18,.28-.32,.46-.44,.18-.11,.38-.18,.6-.21,.22-.03,.46,0,.72,.06,.26,.07,.52,.2,.8,.39,.12,.08,.23,.18,.34,.28s.2,.21,.27,.3c.08,.1,.14,.19,.18,.27,.04,.08,.07,.15,.09,.2s.02,.09,.02,.12c0,.03,0,.06-.02,.09-.01,.03-.03,.06-.05,.1s-.05,.09-.09,.14c-.04,.06-.08,.1-.11,.14-.03,.04-.07,.07-.1,.09-.03,.02-.06,.03-.08,.03-.03,0-.05,0-.07-.02-.03-.02-.06-.07-.09-.15s-.08-.17-.14-.27c-.06-.1-.14-.22-.24-.34-.1-.12-.22-.24-.38-.34-.14-.1-.28-.17-.4-.21s-.25-.06-.36-.05-.21,.04-.3,.1c-.09,.06-.17,.13-.23,.22-.09,.13-.13,.26-.13,.4,0,.14,.04,.27,.1,.42,.06,.14,.14,.29,.24,.43s.2,.3,.3,.46c.1,.16,.2,.32,.29,.48,.09,.17,.15,.34,.19,.51,.04,.17,.04,.35,0,.54-.03,.19-.11,.38-.25,.57Z"/><path class="cls-3" d="M157.49,31.66c-.1,.12-.18,.2-.25,.22-.07,.03-.13,.02-.18-.03l-1.99-1.6c-.06-.05-.08-.1-.07-.18,0-.07,.06-.17,.16-.29,.1-.12,.18-.19,.25-.22,.07-.02,.13-.01,.19,.03l1.99,1.6s.04,.04,.06,.07c.01,.03,.01,.06,0,.1s-.02,.08-.05,.13c-.03,.05-.06,.1-.11,.16Z"/><path class="cls-3" d="M162.46,39.96c-.05,.05-.1,.1-.14,.13s-.09,.06-.13,.07c-.04,.01-.07,.01-.11,0-.03,0-.06-.02-.08-.04l-2.71-2.65c-.07-.07-.11-.15-.12-.25s.03-.21,.14-.33l4.92-5.04c.11-.11,.22-.16,.32-.15,.1,.01,.19,.05,.25,.12l2.68,2.62s.04,.05,.05,.08,0,.06,0,.1c-.01,.04-.04,.08-.07,.13-.03,.05-.08,.1-.13,.16-.05,.05-.1,.09-.15,.13-.05,.03-.09,.05-.12,.07-.04,.01-.07,.02-.1,0-.03,0-.06-.02-.08-.04l-2.21-2.16-1.73,1.77,1.9,1.85s.04,.05,.04,.08,0,.07,0,.1c0,.04-.03,.08-.07,.12-.03,.05-.08,.1-.13,.15-.05,.05-.1,.09-.14,.13-.04,.03-.08,.05-.12,.06-.04,0-.07,.01-.1,0-.03,0-.05-.02-.08-.05l-1.89-1.85-1.97,2.02,2.24,2.19s.04,.05,.05,.08c0,.03,0,.06,0,.1,0,.04-.03,.08-.06,.13-.03,.04-.08,.1-.13,.15Z"/><path class="cls-3" d="M166.47,44.91s-.05,.04-.08,.04c-.03,0-.06,0-.09-.02-.03-.02-.07-.04-.12-.08-.04-.04-.09-.09-.15-.15-.06-.06-.1-.12-.13-.17-.03-.05-.05-.09-.07-.13-.01-.04-.02-.07,0-.1s.02-.05,.05-.08l.54-.48c-.43,0-.81-.07-1.15-.19s-.63-.31-.88-.59c-.27-.3-.44-.61-.51-.93-.07-.32-.07-.63,.01-.94,.08-.31,.23-.61,.45-.91,.22-.3,.47-.58,.77-.85,.35-.31,.71-.56,1.06-.73,.35-.18,.69-.28,1.03-.31,.33-.03,.65,.02,.96,.14,.3,.13,.58,.33,.84,.62,.21,.24,.36,.51,.43,.8,.07,.29,.09,.63,.06,1l2.39-2.12s.05-.03,.08-.04c.03,0,.06,0,.1,.02,.04,.02,.08,.05,.13,.09,.05,.04,.11,.1,.17,.17,.07,.08,.12,.14,.16,.2,.04,.06,.06,.1,.07,.14,.01,.04,.02,.07,0,.1,0,.03-.02,.06-.04,.08l-6.08,5.4Zm2.22-3.32c.07-.43,.09-.8,.05-1.1-.04-.31-.15-.57-.33-.77-.17-.19-.36-.31-.57-.37s-.43-.06-.65,0c-.22,.05-.45,.14-.67,.27s-.43,.28-.63,.45c-.21,.18-.4,.38-.56,.59-.17,.21-.3,.42-.38,.63-.08,.21-.11,.43-.09,.64s.12,.42,.3,.62c.09,.1,.19,.18,.3,.25s.24,.12,.39,.16c.15,.04,.32,.07,.52,.08,.2,.02,.42,.02,.68,0l1.64-1.46Z"/><path class="cls-3" d="M168.31,47.34s-.05,.03-.08,.03c-.03,0-.06,0-.09-.03-.04-.02-.08-.05-.12-.1s-.1-.11-.16-.19c-.06-.08-.1-.15-.14-.2s-.06-.11-.07-.15c-.01-.04-.01-.07,0-.1,0-.03,.03-.05,.05-.07l4.36-3.34s.05-.03,.08-.03c.03,0,.06,0,.1,.03,.04,.02,.08,.05,.12,.1,.05,.05,.1,.11,.16,.19,.06,.08,.11,.15,.14,.21,.03,.06,.05,.1,.06,.14,0,.04,0,.07,0,.1s-.03,.05-.05,.07l-4.36,3.34Zm5.9-4.38c-.19,.14-.34,.21-.46,.19-.12-.02-.26-.12-.4-.31-.14-.19-.21-.34-.2-.46,.01-.12,.11-.25,.3-.39,.19-.14,.34-.21,.46-.19,.12,.02,.26,.12,.4,.31,.14,.19,.21,.34,.2,.46-.01,.12-.11,.25-.3,.39Z"/><path class="cls-3" d="M171.52,51.11c-.1,.07-.18,.12-.24,.14-.07,.03-.12,.04-.17,.03-.04,0-.1-.03-.16-.07s-.12-.08-.18-.14c-.06-.06-.12-.12-.19-.19-.06-.07-.12-.14-.17-.22-.16-.23-.27-.46-.33-.67s-.05-.41,0-.61c.05-.19,.16-.38,.31-.56,.16-.18,.37-.36,.63-.54l2.64-1.83-.44-.63s-.04-.11,0-.18c.03-.07,.11-.14,.23-.23,.06-.04,.12-.08,.17-.1,.05-.02,.09-.04,.13-.04,.04,0,.07,0,.1,.01,.03,.01,.05,.03,.07,.06l.43,.63,1.07-.74s.05-.03,.08-.03c.03,0,.06,0,.1,.03,.04,.02,.08,.06,.12,.11,.04,.05,.09,.11,.15,.19,.06,.08,.1,.15,.13,.21,.03,.06,.05,.11,.05,.15,0,.04,0,.07,0,.1s-.03,.05-.05,.07l-1.07,.74,.8,1.16s.03,.05,.03,.08c0,.03,0,.06-.02,.09-.02,.04-.05,.07-.09,.11-.04,.04-.09,.08-.15,.12-.12,.08-.22,.13-.29,.14-.07,0-.13-.01-.16-.06l-.8-1.16-2.52,1.75c-.31,.22-.51,.42-.61,.63-.1,.2-.06,.42,.1,.66,.05,.08,.11,.14,.17,.19,.06,.05,.11,.09,.16,.13s.09,.06,.13,.09c.04,.02,.07,.05,.09,.07,.01,.02,.02,.04,.02,.06,0,.02,0,.04-.02,.07-.02,.02-.04,.05-.08,.09-.04,.04-.08,.07-.14,.11Z"/><path class="cls-3" d="M178.57,58.17c-.39,.22-.78,.37-1.16,.45-.39,.08-.76,.08-1.11,.01-.35-.07-.68-.22-.99-.46s-.57-.55-.8-.96c-.22-.39-.35-.77-.4-1.13-.05-.36-.01-.7,.1-1.02s.3-.62,.57-.89c.27-.28,.6-.53,1.01-.75,.39-.22,.78-.37,1.16-.45,.39-.08,.75-.09,1.11-.02,.35,.07,.68,.22,.98,.46,.3,.23,.57,.55,.8,.96,.22,.39,.35,.77,.4,1.13,.05,.36,.01,.7-.1,1.02-.11,.32-.3,.62-.57,.89-.26,.28-.6,.53-1,.75Zm-.57-.88c.26-.14,.49-.31,.69-.48,.2-.18,.36-.37,.47-.58,.11-.21,.17-.44,.16-.68,0-.25-.09-.51-.25-.79-.15-.26-.32-.46-.51-.6-.2-.14-.42-.22-.65-.25-.24-.03-.49,0-.75,.06-.26,.07-.53,.18-.81,.33-.26,.15-.5,.31-.7,.49s-.36,.37-.47,.58c-.11,.21-.16,.44-.16,.68,0,.25,.09,.51,.24,.79,.14,.26,.32,.46,.51,.59s.42,.22,.65,.25c.24,.03,.48,0,.75-.06,.26-.07,.53-.19,.81-.34Z"/><path class="cls-3" d="M178.91,65.37s-.06,.02-.08,.01c-.03,0-.06-.02-.08-.05-.03-.03-.06-.07-.1-.12-.03-.06-.07-.13-.11-.22-.04-.09-.07-.17-.09-.23-.02-.06-.03-.11-.03-.15,0-.04,0-.07,.02-.1,.01-.02,.03-.04,.06-.06l2.92-1.36c.28-.13,.5-.26,.65-.39,.15-.12,.27-.26,.36-.4,.09-.14,.13-.3,.13-.46,0-.17-.04-.34-.12-.51-.11-.23-.29-.42-.56-.57-.27-.15-.62-.28-1.05-.39l-3.48,1.62s-.06,.02-.08,.01-.06-.02-.09-.05c-.03-.03-.06-.07-.1-.12-.03-.06-.07-.13-.12-.22-.04-.09-.07-.17-.09-.23-.02-.06-.03-.12-.03-.16,0-.04,0-.07,.02-.1s.04-.04,.07-.05l4.98-2.32s.06-.02,.08-.02c.02,0,.05,.01,.09,.04s.06,.06,.09,.11c.03,.05,.06,.12,.1,.2,.04,.08,.07,.15,.09,.21,.02,.06,.03,.1,.02,.14,0,.04-.01,.07-.03,.09-.01,.02-.04,.04-.07,.05l-.66,.31c.44,.13,.8,.31,1.08,.52,.28,.21,.48,.46,.61,.74,.16,.33,.23,.64,.22,.92,0,.28-.07,.53-.19,.76-.12,.23-.3,.43-.52,.61-.23,.18-.51,.35-.87,.52l-3.04,1.42Z"/><path class="cls-3" d="M182.3,69.94c-.26,.1-.51,.14-.76,.12-.24-.02-.47-.09-.68-.22-.21-.13-.4-.3-.56-.52s-.31-.48-.42-.77c-.07-.18-.12-.36-.16-.54-.04-.18-.05-.34-.06-.49,0-.15,0-.28,.01-.39s.03-.19,.05-.25c.02-.06,.06-.11,.12-.15,.06-.05,.15-.09,.27-.14,.07-.03,.13-.05,.19-.06s.1-.02,.13-.02c.03,0,.06,0,.08,.02,.02,.02,.04,.04,.05,.06,.02,.04,.01,.11,0,.21-.02,.1-.04,.22-.05,.37s-.02,.31,0,.49c.01,.18,.06,.38,.14,.59,.06,.16,.13,.3,.22,.41,.08,.12,.18,.21,.28,.28s.22,.11,.34,.12c.12,.01,.25,0,.39-.06,.15-.05,.25-.14,.32-.25,.07-.11,.12-.24,.15-.39,.03-.15,.04-.31,.05-.49,0-.17,0-.35,0-.54,0-.19,.02-.37,.04-.56,.02-.19,.07-.36,.14-.53,.07-.17,.18-.32,.31-.46,.13-.14,.32-.25,.54-.33,.2-.08,.41-.11,.62-.1s.42,.06,.62,.17c.2,.1,.38,.26,.56,.46,.17,.2,.32,.46,.44,.77,.05,.14,.09,.28,.12,.42,.03,.15,.05,.28,.05,.4,0,.12,0,.23,0,.32s-.02,.17-.04,.22c-.02,.05-.03,.09-.05,.11-.02,.02-.04,.04-.07,.06-.03,.02-.06,.04-.1,.06-.04,.02-.09,.04-.15,.07-.06,.02-.12,.04-.17,.06-.05,.01-.09,.02-.13,.02s-.06,0-.08-.02c-.02-.01-.04-.03-.04-.06-.01-.03-.01-.09,0-.17s.03-.18,.04-.3c0-.12,0-.26,0-.41-.01-.16-.05-.32-.12-.5-.06-.16-.13-.29-.21-.4-.08-.11-.17-.19-.27-.24-.1-.05-.2-.08-.3-.09-.11,0-.21,.01-.32,.05-.15,.06-.26,.14-.33,.26-.07,.12-.12,.25-.15,.4-.03,.15-.04,.32-.05,.49,0,.18,0,.36,0,.55,0,.19-.01,.37-.04,.56-.02,.19-.06,.36-.13,.53-.07,.17-.17,.32-.3,.45s-.31,.24-.53,.33Z"/><path class="cls-3" d="M34.25,33.44c.17,.16,.25,.31,.25,.43s-.08,.27-.25,.45c-.16,.17-.3,.26-.43,.26-.12,0-.26-.07-.43-.23-.17-.16-.25-.31-.25-.43s.08-.27,.25-.45c.16-.17,.3-.26,.43-.26,.12,0,.26,.07,.43,.23Zm5.22,5.17s.04,.05,.04,.07,0,.06-.01,.1c-.01,.04-.04,.08-.08,.14s-.09,.12-.16,.19c-.07,.07-.13,.13-.18,.17-.05,.04-.1,.07-.13,.09-.04,.02-.07,.02-.1,.02-.03,0-.05-.02-.07-.04l-3.96-3.8s-.04-.04-.04-.07c0-.03,0-.06,.01-.1,.01-.04,.04-.08,.08-.14,.04-.05,.09-.11,.16-.19,.07-.07,.13-.13,.18-.17,.05-.04,.09-.07,.13-.08,.04-.02,.07-.02,.1-.01,.03,0,.05,.02,.07,.04l3.96,3.8Z"/><path class="cls-3" d="M172.69,53.38s-.05,.03-.08,.03c-.03,0-.06-.01-.09-.03-.04-.02-.07-.05-.12-.1-.04-.05-.1-.11-.15-.2-.06-.08-.1-.15-.13-.21-.03-.06-.05-.11-.06-.15s0-.07,0-.1c0-.02,.03-.05,.05-.06l4.49-3.16s.05-.03,.08-.03c.03,0,.06,0,.09,.03,.04,.02,.08,.06,.12,.11,.04,.05,.09,.11,.15,.19,.06,.08,.1,.15,.13,.21,.03,.06,.05,.11,.06,.15s0,.07,0,.1-.03,.05-.05,.07l-4.49,3.16Zm6.08-4.13c-.19,.14-.35,.19-.47,.17-.12-.02-.25-.13-.39-.33-.14-.19-.2-.35-.18-.47,.02-.12,.12-.25,.31-.38,.19-.14,.35-.19,.47-.17,.12,.02,.25,.13,.39,.33,.14,.19,.19,.35,.18,.47-.02,.12-.12,.25-.31,.38Z"/><path class="cls-3" d="M149.94,171.11c.14,.19,.2,.35,.18,.47-.02,.12-.13,.25-.32,.39-.19,.14-.35,.2-.46,.19-.12-.02-.25-.12-.39-.3-.14-.19-.2-.35-.18-.47,.02-.12,.13-.25,.32-.4,.19-.14,.35-.2,.46-.19,.12,.02,.25,.12,.39,.3Zm4.24,6s.03,.05,.03,.08,0,.06-.03,.09c-.02,.03-.05,.07-.1,.12-.05,.04-.11,.1-.2,.16-.08,.06-.15,.1-.21,.13-.06,.03-.11,.05-.15,.06s-.07,0-.1,0c-.03,0-.05-.03-.07-.05l-3.24-4.44s-.03-.05-.03-.08c0-.03,0-.06,.03-.1,.02-.04,.06-.08,.11-.12,.05-.05,.11-.1,.19-.15,.08-.06,.15-.11,.21-.14s.11-.05,.14-.06c.04,0,.07,0,.1,0,.03,.01,.05,.03,.07,.05l3.24,4.43Z"/></svg>